<svg id="Camada_3" data-name="Camada 3" xmlns="http://www.w3.org/2000/svg" viewBox="0 0 245.81 62.94"><defs><style>.cls-1{fill:#fff;}</style></defs><title>rir-logo</title><path class="cls-1" d="M190.74,30.93l5.06-17.82a1.08,1.08,0,0,1,1.33-.74l3.31.94a1.08,1.08,0,0,1,.74,1.33l-5.06,17.82a1.08,1.08,0,0,1-1.33.74l-3.31-.94A1.08,1.08,0,0,1,190.74,30.93Z"/><path class="cls-1" d="M169.72,22.11h4a1.08,1.08,0,0,1,1.08,1.08v27a1.08,1.08,0,0,1-1.08,1.08h-4a1.08,1.08,0,0,1-1.08-1.08v-27A1.08,1.08,0,0,1,169.72,22.11Z"/><path class="cls-1" d="M39.47,32.14a1.27,1.27,0,0,1-.62-1.6c.68-2.29,4-13.48,5.55-20.28C46.32,1.87,42.24-2,33.76,1,27.09,3.46,11.36,11.7.47,19a1.08,1.08,0,0,0-.28,1.5h0L2.45,23.8a1.08,1.08,0,0,0,1.48.27h0c10.52-7,25.59-14.93,31.94-17.23,2.37-.86,3.18-.83,2.53,2-1.59,7-5.13,18.84-5.53,20.17-1.34,4.48-1.07,5.64,2.21,7.6.7.42,16.86,10.19,24.93,25.69h0a1.09,1.09,0,0,0,1.42.51l3.64-1.79a1.08,1.08,0,0,0,.52-1.33C57.93,44.83,44,35,39.48,32.12Z"/><path class="cls-1" d="M23.71,22.11h4a1.08,1.08,0,0,1,1.08,1.08v27a1.08,1.08,0,0,1-1.08,1.08h-4a1.08,1.08,0,0,1-1.08-1.08v-27A1.08,1.08,0,0,1,23.71,22.11Z"/><path class="cls-1" d="M185.46,32.14a1.27,1.27,0,0,1-.62-1.6c.68-2.29,4-13.48,5.55-20.28C192.31,1.87,188.23-2,179.75,1c-4.95,1.8-14.89,6.8-24.14,12.23h0a1.09,1.09,0,0,0-.38,1.48h0l2,3.48a1.08,1.08,0,0,0,1.44.37c8.9-5.24,18.43-10.05,23.15-11.76,2.37-.86,3.18-.83,2.53,2-1.59,7-5.14,18.84-5.53,20.17-1.34,4.48-1.07,5.64,2.21,7.6.7.42,16.86,10.19,24.93,25.69h0a1.09,1.09,0,0,0,1.42.51l3.64-1.79a1.08,1.08,0,0,0,.52-1.33C203.92,44.83,190,35,185.47,32.12Z"/><path class="cls-1" d="M127.62,18.39l1.32-4.64a1.08,1.08,0,0,1,1.33-.74l3.31.94a1.08,1.08,0,0,1,.74,1.33L133,19.92a1.08,1.08,0,0,1-1.33.74l-3.31-.94A1.08,1.08,0,0,1,127.62,18.39Z"/><path class="cls-1" d="M156.81,24.52c-2.41-1.94-5.67-.33-6.74.2l-2.48,1.2c-.41.2-.65.12-.77-.18a3.66,3.66,0,0,0-1.4-1.74c-2.61-1.73-5.67.7-7,1.79l-7.86,6.63c-1.4,1.18-.91-.37-.89-.5l1.9-6.76a1.09,1.09,0,0,0-.74-1.34l-3.31-.94a1.08,1.08,0,0,0-1.33.75l-4.36,15.53c-.63,2.27.26,3.43,1.12,4,.7.47,2.17,1,4.1-.49l12.51-10.49c1.4-1.18.91.37.89.5l-2.82,9.93a1.09,1.09,0,0,0,.74,1.34l3.31.94a1.08,1.08,0,0,0,1.33-.75l2.91-10.3a2.25,2.25,0,0,1,1.19-1.44l5-2.43c.45-.22.65-.11.52.4L149.78,43a1.08,1.08,0,0,0,.82,1.29L154,45a1.08,1.08,0,0,0,1.29-.82l2.8-12.49c.31-1.28,1.26-5.17-1.26-7.19Z"/><path class="cls-1" d="M197.13,7.88l1.32-4.64a1.08,1.08,0,0,1,1.33-.74l3.31.94a1.08,1.08,0,0,1,.74,1.33l-1.32,4.64a1.08,1.08,0,0,1-1.33.74l-3.31-.94A1.08,1.08,0,0,1,197.13,7.88Z"/><path class="cls-1" d="M60.59,34.43a16.48,16.48,0,0,0,4.52-8.14c.08-.28.42-1.39.42-1.39.39-1.26.4-1.29,2.25-2,1.51-.6,17.25-6.42,21.41-8a1.08,1.08,0,0,0,.65-1.33l-1.23-3.35a1.07,1.07,0,0,0-1.34-.59c-4.17,1.54-20,7.38-21.55,8-4.06,1.61-4.83,3.26-5.55,5.59,0,0-.35,1.13-.45,1.48a11.38,11.38,0,0,1-2.89,5.53c-3.11,2.82-4.89,1.28-4.93-1-.06-3.33,1.79-6,5.59-8v0A1.09,1.09,0,0,0,58,19.79l-1.57-3.1h0A1.09,1.09,0,0,0,55,16.2c-7.26,3.84-8.75,9.22-8.68,13.12.13,7.12,7.6,11.16,14.29,5.1Z"/><path class="cls-1" d="M103.52,33.73c-.62-.61-.6-.83.34-1.23,3.73-1.58,7.94-3.58,14.58-7.15h0a1.1,1.1,0,0,0,.45-1.48h0l-1.63-3h0a1.09,1.09,0,0,0-1.43-.45,157.68,157.68,0,0,1-16.21,7.8c-2,.82-2.08.5-1.37-1.24A75,75,0,0,1,111,5.49h0A1.12,1.12,0,0,0,110.88,4l-2.56-2.34a1.08,1.08,0,0,0-1.47,0C99.4,10.12,94.54,20.28,91,30.18a3.74,3.74,0,0,1-2.31,2.3A109.38,109.38,0,0,1,71.8,37.8c-1,.21-2.3.06-.65-1.81a33.55,33.55,0,0,1,6.39-5.79c.44-.3,1.46-1,1.26-.32l-.12.44a1.09,1.09,0,0,0,.75,1.26h0l3.33.94h0a1.11,1.11,0,0,0,1.33-.73c.46-1.65,1-3.7,1.16-4.13A4.12,4.12,0,0,0,84,23.19c-1.53-1.21-3.66-1.08-6.33.37A38.26,38.26,0,0,0,67,32.29c-4.71,5.37-3.88,11.35,2.93,11.35a15.7,15.7,0,0,0,3-.33,96,96,0,0,0,13.62-4c1.56-.56,1.72-.43,1.31,1-1.09,3.82-2,7.49-2.9,10.87L84.21,54A1.09,1.09,0,0,0,85,55.32l3.39.89a1.08,1.08,0,0,0,1.26-.74c.25-1,.49-1.92.75-2.91,1.15-4.48,2.43-9.48,4-14.66.32-1,.54-1.8,1.36-2.13l.25-.1c.92-.37,1.2-.3,2,.48,4.19,4.16,13.39,13.29,17.32,17.21a1.09,1.09,0,0,0,1.49,0l2.51-2.52a1.08,1.08,0,0,0,0-1.43L103.53,33.75Z"/><path class="cls-1" d="M245.75,13.6l-1.23-3.35a1.07,1.07,0,0,0-1.34-.59c-4.17,1.54-20,7.38-21.55,8-4.06,1.61-4.83,3.26-5.55,5.59,0,0-.35,1.13-.45,1.48a11.38,11.38,0,0,1-2.89,5.53c-3.11,2.82-4.89,1.28-4.93-1-.06-3.33,1.79-6,5.58-8v0a1.09,1.09,0,0,0,.48-1.42l-1.57-3.1h0a1.09,1.09,0,0,0-1.41-.49c-7.26,3.84-8.75,9.22-8.68,13.12.13,7.12,7.6,11.16,14.29,5.1A16.48,16.48,0,0,0,221,26.29c.08-.28.42-1.39.42-1.39.39-1.26.4-1.29,2.26-2,1.51-.6,17.25-6.42,21.41-8a1.08,1.08,0,0,0,.65-1.33Z"/></svg>