<svg xmlns="http://www.w3.org/2000/svg" viewBox="0 0 564 73.18"><defs><style>.cls-1{fill:#fff;}</style></defs><title>Ativo 1</title><g id="Camada_2" data-name="Camada 2"><g id="Camada_1-2" data-name="Camada 1"><path class="cls-1" d="M372,.09a2,2,0,0,1,2,2v34h-.09c-1.34-.07-2.65-.2-3.9-.39C358.19,33.92,350.4,26.89,351.37,17a8.35,8.35,0,0,0-5.56-9.1,43.86,43.86,0,0,0-23.92-1.53c-4.36.87-5.2,3.76-2.77,6.87a100.09,100.09,0,0,0,11.38,12.3c11.71,10.7,23.81,21,35.39,31.79,3.69,3.45,7,7.57,7.89,13.48a2,2,0,0,1-2,2.26H339q-17.41,0-34.82,0l-5.64,0H289a2,2,0,0,1-2-2v-35h.52c5.58,2.25,10.93,3.86,15.73,6.52.33.18.65.38,1,.59,3.93,2.64,5.46,7.06,5.58,12.1.2,7.9,3.54,11.76,11.25,12.52a70.31,70.31,0,0,0,16.25.11c7.06-1,8.48-4.55,3.64-9.65-7.05-7.45-14.76-14.28-22.44-21.1-8.8-7.83-17.87-15.34-26.81-23-3-2.58-4.67-5.6-4.67-9.27V2.09a2,2,0,0,1,2-2Z"/><path class="cls-1" d="M470,66.47c-.46-6.64-1.21-13.26-2-19.87a65.68,65.68,0,0,0-15.88-35.51C447,5.22,440.76.52,432.76,0H408V0c-7.88,0-15.75.09-23.62,0H380a2,2,0,0,0-2,2V3.84s0,.09,0,.13c.42,5.3.25,10.64.79,15.93,1.85,18,7.81,34.26,22.19,46,4.06,3.31,9.46,6.59,14.4,6.85,2.19.12,4.39.21,6.58.27,13.85.42,27.75-.06,41.61.13a10.67,10.67,0,0,0,1.79-.11l.26,0H468a2,2,0,0,0,2-2V67.34Q470,66.92,470,66.47ZM420.41,63c-16.29-7.31-25.63-20.4-27.59-38.06-1.43-13,8.69-20.2,20.91-15.72,14.51,5.33,28.19,24.48,28.13,39.38C441.8,61.81,432.42,68.44,420.41,63Z"/></g><g id="Camada_2-2" data-name="Camada 2"><path class="cls-1" d="M93,2.09v40a2,2,0,0,1-2,2l-5.82,0h-15a5.4,5.4,0,0,1-5.4-5.4h0a0,0,0,0,1,0,0,11,11,0,0,1,1.66-6.23c2.61-3.69,4.53-7.16,1.85-11.37-2.78-4.37-7.26-4.2-11.71-3.57C41.76,19.61,32,30,31,44.51V71.09a2,2,0,0,1-2,2H2a2,2,0,0,1-2-2v-69a2,2,0,0,1,2-2H21a2,2,0,0,1,2,2v18c0,4,0,10.5,0,12.9s1,4.45,3.29,4.48,4-1.89,4.74-3.44c4.34-9,10.08-16.82,18.17-22.81A56.55,56.55,0,0,1,83.72.09H91A2,2,0,0,1,93,2.09Z"/><path class="cls-1" d="M187,1.38V71.8a1.29,1.29,0,0,1-1.29,1.29H166.28A1.28,1.28,0,0,1,165,71.81V44.35a1.27,1.27,0,0,0-2.33-.68l0,0-.45.68C153.82,57,141.53,64.3,127.68,69.31c-4.74,1.7-11.23,3.78-14.48,3.78H98.28A1.28,1.28,0,0,1,97,71.81V1.37A1.28,1.28,0,0,1,98.28.09h23.44A1.29,1.29,0,0,1,123,1.38V2.75a26.26,26.26,0,0,1-1.91,9.83,26.3,26.3,0,0,1-1.45,2.67c-2.11,3.5-4.84,6.75-6.05,10.51a26,26,0,0,0-1.33,8,22.12,22.12,0,0,0,8,16.9c7.26,6.44,16,7.83,24.7,2.83a73.23,73.23,0,0,0,14.59-11.13c.16-.16.32-.32.47-.49a19.44,19.44,0,0,0,5-11.54,1.46,1.46,0,0,0,0-.17V1.38A1.29,1.29,0,0,1,166.29.09h19.43A1.29,1.29,0,0,1,187,1.38Z"/><path class="cls-1" d="M283,2.09v69a2,2,0,0,1-2,2H262a2,2,0,0,1-2-2V61.93c0-2.42,0-4.84,0-7.25V48.76c0-.28,0-.57,0-.85a32.73,32.73,0,0,0-4.58-15.11,33.36,33.36,0,0,0-23.3-15.74l-.87-.12a18.67,18.67,0,0,0-2.19-.12h-.12c-.34,0-.68,0-1,.06s-.66,0-1,.1l-.54.08a11.37,11.37,0,0,0-1.16.23l-.47.11c-.3.07-.59.16-.89.25l-.07,0q-.41.12-.81.27l-.1,0c-.25.09-.51.19-.75.3s-.64.27-1,.42l-.55.28c-.18.08-.35.17-.53.27l-.08,0-.68.4-.2.11a6.5,6.5,0,0,0-.55.36l-.1.06-.64.44c-.48.34-1,.71-1.41,1.1a21.12,21.12,0,0,0-1.63,1.51c-.26.27-.51.54-.76.82V23.8a23.69,23.69,0,0,0-1.63,2c-.13.18-.25.35-.37.54v0l-1,2.22V29a24.28,24.28,0,0,0-1.09,2.38l-.3.83a23.23,23.23,0,0,0-1.16,5.17A30,30,0,0,0,209.53,50c.18.53.37,1,.58,1.56s.43,1,.68,1.53.5,1,.8,1.45a23.15,23.15,0,0,0,3.64,4.66c.41.41.85.81,1.29,1.2s.92.77,1.4,1.14,1,.73,1.51,1.08c.26.17.53.35.81.51.54.34,1.1.67,1.68,1,9.6,5.28,19,4.85,27.83-.45.53-.32,1.07-.65,1.59-1s1.06-.72,1.58-1.11l.51-.37.44-.31.39-.27.46-.32,1.22-.83c0,1.74,0,3.34.05,4.86v6.77a2,2,0,0,1-2,2H193a2,2,0,0,1-2-2v-69a2,2,0,0,1,2-2h5.16c20.28,0,38.08,6.66,53,20.84a40.71,40.71,0,0,1,4.18,4.73l1,1.36A2,2,0,0,0,260,25.81V24c0-4.35.07-8.6,0-12.8V2.09a2,2,0,0,1,2-2h19A2,2,0,0,1,283,2.09Z"/><path class="cls-1" d="M474,71.8V1.38A1.29,1.29,0,0,1,475.29.09h19.44A1.28,1.28,0,0,1,496,1.37V28.83a1.27,1.27,0,0,0,2.33.68l0,0,.45-.68c8.38-12.65,20.67-19.91,34.52-24.93,4.74-1.7,11.23-3.78,14.48-3.78h14.91A1.28,1.28,0,0,1,564,1.37V71.81a1.28,1.28,0,0,1-1.28,1.28H539.29A1.29,1.29,0,0,1,538,71.8V70.43a26.26,26.26,0,0,1,1.91-9.83,26.3,26.3,0,0,1,1.45-2.67c2.11-3.5,4.84-6.75,6.05-10.51a26,26,0,0,0,1.33-8,22.12,22.12,0,0,0-8-16.9c-7.26-6.44-16-7.83-24.7-2.83a73.23,73.23,0,0,0-14.59,11.13c-.16.16-.32.32-.47.49a19.44,19.44,0,0,0-5,11.54,1.46,1.46,0,0,0,0,.17V71.8a1.29,1.29,0,0,1-1.29,1.29H475.29A1.29,1.29,0,0,1,474,71.8Z"/></g></g></svg>