<svg id="Camada_1" data-name="Camada 1" xmlns="http://www.w3.org/2000/svg" viewBox="0 0 640 427"><defs><style>.cls-1{fill:#fff;}.cls-2{fill:#f3aa06;}</style></defs><title>thumb-fortal</title><rect width="640" height="427"/><g id="Camada_1-2" data-name="Camada 1-2"><polygon class="cls-1" points="142.23 179.03 142.23 191.16 162.59 191.16 162.59 206.47 142.23 206.47 142.23 246.6 128 246.6 128 163.14 177.49 163.14 177.49 179.03 142.23 179.03"/><path class="cls-1" d="M362.75,255.69c-.37-.18-.74-.34-1.11-.49a25.17,25.17,0,0,1-15.15-16.32c-2-6-4.47-11.77-6.81-17.62-2.8-7-8-11.33-15-13.83-.46-.18-.92-.37-1.63-.68,4.31-1.36,7.05-3,9.24-6.07,5.73-8,7.15-16.57,2.8-25.78-2.65-5.64-6.78-9.36-13-10.41a59.65,59.65,0,0,0-9.33-1c-12.32-.09-24.64,0-37,0a2.34,2.34,0,0,0-.65.09v15.8h11.33v67.17h16V215c2.25.18,4.19.25,6.1.49a17.83,17.83,0,0,1,13.24,8c4.19,6.38,7.24,13.31,10.13,20.33,2.06,5.08,4.1,10.16,7.55,14.57A25.82,25.82,0,0,0,353.57,268a1.82,1.82,0,0,0,1.57-.34c2.74-3.85,5.39-7.73,8.07-11.61C363,255.9,362.9,255.81,362.75,255.69ZM317.35,197c-3.67,2.16-7.7,2.22-11.8,2.09-1.11,0-2.25-.18-3.51-.31V179.31c4.93-.62,9.79-.8,14.44,1a7.74,7.74,0,0,1,5.24,7.15C322,191.41,321,194.83,317.35,197Z"/><path class="cls-1" d="M464.6,163.69v83.5H449.2v-38.1H425.42V194.74h23.9c0-2.13,0-4.07,0-6,0-2.83.06-5.64.15-8.47,0-.77-.09-1.29-1-1.26-6,.06-11.86.8-17.25,3.79-4.74,2.62-7.76,6.71-10,11.55a53.85,53.85,0,0,0-4.56,20.42,67.36,67.36,0,0,0,1.63,20.17c1.2,4.53,3,8.72,6.68,12.17a12.44,12.44,0,0,1-1.32.12c-5.94,0-11.92,0-17.86,0a1.78,1.78,0,0,1-1.91-1.29,43.9,43.9,0,0,1-3.42-15.37c-.52-11.21-.52-22.48,2.62-33.29,4-13.86,12.07-24.7,26-30.28a46.76,46.76,0,0,1,15.89-3.26c6.25-.18,12.5-.12,18.79-.15A4.18,4.18,0,0,1,464.6,163.69Z"/><polygon class="cls-1" points="404.39 164 404.39 179.77 381.78 179.77 381.78 247.09 365.46 247.09 365.46 179.83 342.7 179.83 342.7 164 404.39 164"/><polygon class="cls-1" points="512 230.12 512 247.09 472.15 247.09 472.15 164.06 488.35 164.06 488.35 230.12 512 230.12"/><path class="cls-2" d="M246.54,199.23c-2.43-13.34-12.17-23.31-25.44-24.3-10.29-.74-18.29,3.91-22.24,13.46a47.86,47.86,0,0,0-3,13.77c-1.08,11.27,2.28,20.94,10.44,28.89A26,26,0,0,0,220,238.53c6.25,1.11,11.55-1.17,16-5.3,7.67-7,11-16,11.3-27.13C247.16,204.41,247,201.79,246.54,199.23Zm-13.83,34.4c-5.48,4.07-11.4,4.56-17.4,1.48-11.15-5.76-17.37-14.88-17.77-27.6a44.27,44.27,0,0,1,2.93-18.42c3.91-9.52,11.4-13.12,21.13-12.29,12.9,1.11,20.79,10.75,23.1,22.3.52,2.59.68,5.27,1,7.51C245,217.74,241.62,227,232.72,233.63Z"/><path class="cls-2" d="M275.19,200.93l-21.34,2c-.62-3.08-1.2-6.07-1.82-9.18l18.94-8C273.15,189.62,275.34,197.38,275.19,200.93Z"/><path class="cls-2" d="M274.33,216.42A44.62,44.62,0,0,1,268,230.77l-17-9.42c.83-3.11,1.63-6.07,2.46-9.21Z"/><path class="cls-2" d="M191.75,214.39l-17.4,4.71A36,36,0,0,1,173,203.94l17.37.65C190.83,207.92,191.29,211.06,191.75,214.39Z"/><path class="cls-2" d="M262.22,173.18l-14.41,12-6.74-7.27,9.12-14.08C253.81,165.35,260.07,170.22,262.22,173.18Z"/><path class="cls-2" d="M198.71,234.62c-1.6,1.94-3.2,3.85-4.9,5.73a1.26,1.26,0,0,1-1.14.25,37.41,37.41,0,0,1-10.93-8.53l12.47-7.92c1.6,3.17,3.17,6.22,4.65,9.3A1.23,1.23,0,0,1,198.71,234.62Z"/><path class="cls-2" d="M257.17,241.24a43.32,43.32,0,0,1-13.52,5.67c-1.29-2.56-2.59-5.14-3.76-7.51l7-8.84c.15.15.46.37.68.62Z"/><path class="cls-2" d="M236.17,159.35c-1.23,4.44-2.4,8.65-3.54,12.78l-10.84-3.51c0-2.53,0-5.3,0-8a1.3,1.3,0,0,1,.83-1A47.35,47.35,0,0,1,236.17,159.35Z"/><path class="cls-2" d="M193.23,184.26c-1,3.33-2,6.62-3.08,10l-13-4.53,8.9-11.55c2.53,1.88,4.74,3.51,6.93,5.17A1.28,1.28,0,0,1,193.23,184.26Z"/><path class="cls-2" d="M210.69,169.3l-10.44,5.27-3.6-4.93,11.95-6.44Z"/><path class="cls-2" d="M230.25,248.57a84.3,84.3,0,0,1-24.12-2.8l1.39-3.42c10.29,4.37,12.81,4.68,22.08,2.74C229.79,246.14,230,247.19,230.25,248.57Z"/></g></svg>