<svg id="Camada_1" data-name="Camada 1" xmlns="http://www.w3.org/2000/svg" viewBox="0 0 640 427"><defs><style>.cls-1{fill:#fff;}</style></defs><title>thumb-sevenwaves</title><rect width="640" height="427"/><path id="SEVEN" class="cls-1" d="M190.74,153.58l-1.27,3.64c11.18,4.57,16.09,11.6,16.09,22.1C205.56,191.77,195,196,184,196a42.88,42.88,0,0,1-19.39-4.49l2-5.34c6.35,3,12.2,4.49,17.36,4.49,13.63,0,15.58-7.11,15.58-11.35,0-11.09-7.37-14.57-13.89-18-5.08-2.71-9.57-5.08-9.57-12.28,0-4.91,3.56-7.79,10.5-7.79,5.42,0,10.5,1.61,16.09,4.49l4.66-12.7c-5.84-3-10-5-20.83-5-12.87,0-24.14,7.11-24.14,20.92,0,10.84,5.5,18.46,15.41,23l1.36-3.64c-7.2-3.3-12.87-9.15-12.87-19.31,0-11.35,9.15-17,20.24-17,8.55,0,11.77,1.19,15.92,3l-1.95,5.34a34.58,34.58,0,0,0-14-3c-10.33,0-14.4,5.67-14.4,11.69,0,9.15,5.76,12.53,11.52,15.67,5.93,3.22,11.94,5.67,11.94,14.65,0,5.25-4.15,7.45-11.69,7.45-6.35,0-13.13-2.63-19.56-5.93l-4.74,12.62A48.36,48.36,0,0,0,184,199.82c14.74,0,25.41-6.94,25.41-20.58C209.54,166.53,202.93,158.57,190.74,153.58Zm49.37,32.27v-26h24.05V165H246v3.9h22.1v-13H236.22v33.79h29.22v5.17H230.37V133.17h34.47v5.17H236.22V150.7h3.9v-8.47h28.62v-13H226.48V198.8h42.94v-13Zm88.58-56.57-13.8,39,2,5.93,14.48-41h6.1l-20.66,57.59-21.77-61.48H280.59l24.9,69.53h4.15L286.1,133.17h6.1l23.2,65.63H318l24.9-69.53Zm41.41,56.57v-26h24.05V165H376v3.9h22.1v-13H366.22v33.79h29.22v5.17H360.37V133.17h34.47v5.17H366.22V150.7h3.9v-8.47h28.62v-13H356.48V198.8h42.94v-13Zm89.69-11.09L433,129.27h-4.57l35.23,59.79V133.17h5.84V194.9h-8.89l-38.7-65.63h-4.4V198.8h13.63v-34l-3.9-6.69V194.9h-5.84V137.06l36.42,61.82h15.58V129.36H459.8v45.39Z"/><path id="WAVES" class="cls-1" d="M253.66,208.2a1.83,1.83,0,0,0-2.12-.93h-.93a2.12,2.12,0,0,0-.85-.08,3,3,0,0,1-.85.17,9.06,9.06,0,0,0-1.61.51h.17a8.86,8.86,0,0,0-3-.51c-1.36,0-5,.25-10.92.85-3.9.34-6.44,1.19-7.54,2.46-6.1,8.21-9,16.09-8.55,23.63a35.68,35.68,0,0,1-.34-5.25c0-8,1.78-14.4,5.34-19.22-.08.08-.42-.08-.85-.51a5.93,5.93,0,0,0-3.73-1,55.41,55.41,0,0,1-7.54.51c-3.81.17-6.18.51-7.28,1a.8.8,0,0,0-.93-.42,4,4,0,0,1-1.44-.25,4,4,0,0,0-2-.51c-2.88,0-5,.76-6.27,2.29a29.37,29.37,0,0,0-5.25,10h-.85c-.93,4.15-1.61,7.28-2.2,9.32a14.37,14.37,0,0,0,.08,3.3,11.77,11.77,0,0,1-1-2.37l-.08-.85a10,10,0,0,1-.42-3.13,18.58,18.58,0,0,1,1.86-7.37,27.38,27.38,0,0,1,2.63-10.33c-.51-.08-.93-.17-1.36-.25a3.64,3.64,0,0,0-1.36,0h-4.74a8.7,8.7,0,0,0-1.78-.68h-1.69a6.54,6.54,0,0,0-1.27.17,3.64,3.64,0,0,1-1.36,0,47.05,47.05,0,0,0-6.94.68c.17,0-.17-.08-1-.17a6.47,6.47,0,0,0-5.42,3,24.59,24.59,0,0,1-1.36,3.47c-.34.93-.68,1.86-.93,2.79a20.29,20.29,0,0,0-1,4.49,42.75,42.75,0,0,0,.08,4.66c.42,2,.76,3.56.93,4.57a19.65,19.65,0,0,0,1.1,4.91l1.69,4.83c3.64,5.34,6.44,9.32,8.38,11.86a38.55,38.55,0,0,1,7.88,9.49c.08,0,.08,0,.08.08h0a49.54,49.54,0,0,1,3.81,13,16.63,16.63,0,0,1,.76,5,36.62,36.62,0,0,1-1.69,9.57,3,3,0,0,0-.93,1.19c0-.34-.34.34-.93,2.2l-.42,1a1.78,1.78,0,0,0-.42,1.1,1.86,1.86,0,0,0,.08.68,3.21,3.21,0,0,0,1.95,1.52q3.3,0,6.61.25a24.93,24.93,0,0,0,3.56,0q2.67-.25,3.56-.25c0-.08,0-.08.08-.08h-.08v-.17s5.59-.34,6.18-.76h1.27l.17.51a1.78,1.78,0,0,0,1.19.59,1.74,1.74,0,0,0,.93,0,13.44,13.44,0,0,1,1.95-.34c1.61,0,3.73-1.36,6.44-4.07a15.81,15.81,0,0,1,.85-1.36c.08-.08.34-.59.93-1.44l-.08.08a23.74,23.74,0,0,0,5.93-13.13,5.44,5.44,0,0,0,.85-1.1,5.56,5.56,0,0,1,.08,1.69l-.17,1.69a41.26,41.26,0,0,1-.34,5.59c-.42,3-.68,4.91-.76,5.76a13.77,13.77,0,0,0,.17,3.73,10.37,10.37,0,0,0-2,2.63.63.63,0,0,1,.42.08l5.67-.59c.08,0,.25.42.25.42h.25a12.76,12.76,0,0,1,2.54-.08c.85.08,1.69.08,2.46.17,2.2.17,3.81.34,5,.34a39.57,39.57,0,0,0,6.27-.76c2.2-.42,4.4-.85,6.61-1.19a.27.27,0,0,0,.25.25l1.1-.59a20.17,20.17,0,0,0,6.78-8.3,12.45,12.45,0,0,0,3.13-6.44,38.77,38.77,0,0,0,1.69-7.54c.08-.93.25-3.47.42-7.71a42.34,42.34,0,0,0-3.73-7.62l-4.4-7.37c-3.56-5.93-5.25-11.26-5-15.92a4.24,4.24,0,0,1-.68-.59c-.08-.93-.08-1.86-.08-2.79,0-8.55,2.37-14.74,7.2-18.55l-.25-1.44h0a13.38,13.38,0,0,0,1.27-4.07ZM239,231.74a19.26,19.26,0,0,0,1.1,6.94,25.2,25.2,0,0,0,2.88,8.13c.59,1.1,2,3.56,4.57,7.28,4.07,6.27,6.18,11.52,6.35,15.67l-.25.25-.25.25a28.92,28.92,0,0,1-8.72,22.19,3.49,3.49,0,0,0-2.54-.76h-2.79a18.61,18.61,0,0,1-4.66.42c-2-.08-3.56-.17-4.66-.17a2.08,2.08,0,0,1-2.29-.25h-2.88c-.17.59-.34.59-.42.51,1-3.3,1.36-8.3.93-14.91v1.36a28.79,28.79,0,0,0-3.56-13.72,32,32,0,0,0-4.57-7.11,69.91,69.91,0,0,1-4.74-6.44c-.85-.34-1.78-.68-2.63-1.1a9.88,9.88,0,0,0-2.2-.85,2.51,2.51,0,0,0-1.61.85l-.34.51-.42.59c2.2,3.39,3.39,5.17,3.56,5.5a13,13,0,0,1,1.95,6.1c1.52,6.61,2.29,11.35,2.2,14.31-.51,4-2.54,8.64-6.1,14.06l-1.69.85a16.32,16.32,0,0,1-2.12.25h-.25c-.93.25-1.61.42-2.12.59q-3.43.13-8.13,0c-4.07-.08-6.78-.17-8.13-.08a10.45,10.45,0,0,0,1.95-6.86,24,24,0,0,0,1.19-9.49c-.76-8.89-5.34-17-13.47-24.31l.08.08a62.51,62.51,0,0,1-10.67-21.68,14.59,14.59,0,0,0-.34-3.3,3.4,3.4,0,0,1-.25-1.27v.17c.93-5.84,1.86-9.74,2.79-11.77l-.25-.25c2.12-.34,3.47-.68,4.15-.85a4.47,4.47,0,0,1,1,.25,2.51,2.51,0,0,0,1.36.17,4.6,4.6,0,0,1,1.52,0c1,.17,2,.25,3,.34a3.38,3.38,0,0,0,1.61.17,5.38,5.38,0,0,0,1.52-.51,32,32,0,0,0-2.46,12.2q0,12.45,10.42,24.9l4.49,5.34a42.69,42.69,0,0,1,4.07,5.59c1,1.27,1.95,1.86,2.79,1.86a6.45,6.45,0,0,0,1.78.25,2.34,2.34,0,0,0,2-2.12c-5.17-8.72-7.79-13.13-7.79-13.21-3.73-7.37-5.59-13.21-5.59-17.7,0-5.76,1.86-11.6,5.59-17.36a16,16,0,0,0,4.83.76h4.57c.51,0,1.27-.08,2.29-.17s1.86-.17,2.29-.17l5.5-.59c-1.78,5-2.46,8.64-2.2,11a21.16,21.16,0,0,0-.59,4.57,42.69,42.69,0,0,0,1.44,9.15,57.12,57.12,0,0,0,8.47,11.69l-.17-.08-1.1-.76a164,164,0,0,1,11.18,14.14,3.75,3.75,0,0,0,2.79,1.52,1.65,1.65,0,0,0,.68.08,1.82,1.82,0,0,0,2-1.61v-.08a1.52,1.52,0,0,0-.34-1.19A91.83,91.83,0,0,0,230,249.7a70.88,70.88,0,0,1-6.61-12.45c.34-11.18,3.56-19.56,9.74-25.15,0,.08.08.25.08.34V213h3.64a3.46,3.46,0,0,1,1.61.08,9.71,9.71,0,0,1,1.61.59h1.86a4.6,4.6,0,0,0,1.52,0,4.63,4.63,0,0,1,1.52-.08,83.11,83.11,0,0,0-5,11.18h.25a32.21,32.21,0,0,0-1.19,6.94Zm8.89-24.56v.08h-.17a.3.3,0,0,0,.17-.08Zm68.34,85.87.17-.93c.08-.34.17-.59.25-.93l.76-3.64v-1.19a28.53,28.53,0,0,0,1-7.62c0-6.44-2.2-13.47-6.52-21.17l-5-8.81c-4.32-7.62-6.94-13.63-8-18.21h.34a46.38,46.38,0,0,1-.34-5.93c0-.76.08-1.69.17-3,.08-1.44.17-2.46.17-3,.08-3,.25-5.25.25-6.78a9.57,9.57,0,0,1,0-2.2,1.56,1.56,0,0,0-1.1-1.69c-11.18.17-19.48.25-25,.25,0-.34-.25-.51-.59-.59l-1-.25a3.79,3.79,0,0,0-1.69-.34,9.27,9.27,0,0,0-4.4,3.64,37.39,37.39,0,0,0-2.88,5.08c-.59,1.86-1,3.3-1.27,4.4-.76,2.79-1.1,4.23-1.1,4.15a60.56,60.56,0,0,0-1.36,10.33,12.6,12.6,0,0,0-.59,4c-.08,3.39,1.19,9.15,3.73,17.19a34.35,34.35,0,0,1,2.29,7.62c.34,1.52.68,4.15,1.1,8a78.08,78.08,0,0,1-2.37,8.72,15.25,15.25,0,0,1-.51,2.71c-1.19,2.79-2.12,4.91-2.63,6.27l-.08-.08a21,21,0,0,1-1.52,2.63l.25-.17a7.38,7.38,0,0,0-1.44,3.47,3.69,3.69,0,0,0,.93,2.46.63.63,0,0,1,.42.08h3.81l3.22.68h.85a17.18,17.18,0,0,1,3,0c3,.34,9.32.68,9.32.68h.93a8.37,8.37,0,0,0,4.74-2.12,4,4,0,0,0,1.27-2,.72.72,0,0,1,0-.59,4.86,4.86,0,0,1,.34-1.19,8,8,0,0,0,1-1.86,20.58,20.58,0,0,1,1.1-3.22l.34-1.69q.38-1.27.51-1.78a.31.31,0,0,1,.08-.25v-.25h-.76a11.35,11.35,0,0,1,.08,1.69,16.79,16.79,0,0,1-.25,3l-.08.08a29.21,29.21,0,0,1-1.27,5.5,2.4,2.4,0,0,0-.85,1.86,2.69,2.69,0,0,0,2.46,2.79,4,4,0,0,0,2.54-.76c.08,0,.17,0,.17-.08,1.61-.17,4.07-.34,7.28-.51s5.67-.34,7.28-.51a5.53,5.53,0,0,0,1.69.42,24.84,24.84,0,0,0,2.88.59,4.63,4.63,0,0,0,4.83-3.22v.08c.08,0,.08,0,.08-.08h0a10.08,10.08,0,0,0,.85-1.69Zm-18-.93-1.27.17a4.83,4.83,0,0,1-1.1.08h-.34a62.88,62.88,0,0,0,1.52-8c-.08-.85-.17-1.69-.17-2.54q-.38-5.59-3.81-6.1a11,11,0,0,1-2.79.59v1.27l-.93.17-.93.17-.34.08h-.25a3.33,3.33,0,0,0-2.37.93,3.48,3.48,0,0,0-1.27,2.2,70.53,70.53,0,0,1-4.49,11.52,17.83,17.83,0,0,0-2.12-.17,26.32,26.32,0,0,1-3.64-.25,27.36,27.36,0,0,0-3.73,0l-5-.25c4.15-9.82,5.93-18.38,5.42-25.75a42.43,42.43,0,0,0-1.86-8.64c-1.1-3.81-1.86-6.44-2.37-7.88-1.69-5.84-2.46-10.42-2.2-13.55a39.26,39.26,0,0,1,1.27-8.64c1.86-6.1,3.22-10.76,4.07-13.89,8.38.34,14.65.59,18.8.68a1.17,1.17,0,0,0,.25-.34c.08-.17.25-.25.25-.34h1.1a4.12,4.12,0,0,1,1,.08,8.63,8.63,0,0,0,3,.34,132,132,0,0,0-1.19,15.24l1.86,5.59a50.58,50.58,0,0,0,3.64,8.21,48.72,48.72,0,0,0,5.42,10.08,108.79,108.79,0,0,1,6.18,9.65,37.48,37.48,0,0,1,3.64,16.34,32.48,32.48,0,0,1-1.1,8.55c-.68,1.44-1.19,2.54-1.52,3.22h.85a1.07,1.07,0,0,0-.51-.08,57.49,57.49,0,0,0-7.62.42l-.08.08c0,.08,0,.17-.08.17h0a27.37,27.37,0,0,1-5.17.51Zm-3.73-30.06c-1.1-2.2-1.69-3.39-1.69-3.47-2.29-4.07-3.9-6.78-4.83-8.3a12.33,12.33,0,0,1-1.95-4.74c-.42-1.1-.76-1.95-1-2.46-.34-.93-.85-2.37-1.69-4.4q-2.41-5.72-3-6.35a4.17,4.17,0,0,0-1.44-.51h-1.19a1.89,1.89,0,0,0-1.69,1.52c-.08,1.1-.17,2.2-.17,3.3a38,38,0,0,0,2.63,13c2.12,5.5,3.73,9.65,4.74,12.45a30.63,30.63,0,0,0,1.1,4c.17.76.85,1.27,1.95,1.61h3l.17.08,1,.08a17.83,17.83,0,0,1,2.12.17,3.14,3.14,0,0,0,2-1,2.53,2.53,0,0,0,.93-1.95,3,3,0,0,0-.17-.85v.08c.08,0,.08,0,.08.08h0c-.34-.85-.68-1.69-.93-2.29Zm-8.55-3.39-.17-1.69a26.31,26.31,0,0,1,1.69,3.47,3,3,0,0,0-.93-.17,2.34,2.34,0,0,0-.76.08,5.76,5.76,0,0,0,.17-1.69Zm91-50.14h0c.17-.85-.08-1.36-.85-1.44q-5.84-1-7.62-.76l-2.12.34c-4,.25-6.78.42-8.3.51a11.8,11.8,0,0,1-5.93-.85c-.68.42-1.44.85-2.12,1.19l-.59.59-.76.76-.51.51c-4.74,7.71-7.11,15.33-7.2,22.78a25.47,25.47,0,0,0,1.1,8c-2.71-6.18-4-11.69-4-16.43a1.44,1.44,0,0,1,0-.85c.51-2.71.85-4.66,1-6.1a24.1,24.1,0,0,1,.34-3.47c.34-1.78.59-3,.68-3.47a.92.92,0,0,0,.25-1.1c-.08-.51-.68-.76-1.61-.76h-.51s-.42.08-.68.17l-1.1.51h-8.72l-8.64.17c-2.29.17-4.49,1.52-6.52,4.32a1.83,1.83,0,0,0-.08.93,3.54,3.54,0,0,0,.93,1.27c.08-.08.17-.25.34-.42a3.06,3.06,0,0,1,.34-.42,28.16,28.16,0,0,0-2.88,11.94,58.23,58.23,0,0,0,1.1,7.71,2.09,2.09,0,0,1-.42,1.86,7.3,7.3,0,0,1,2.12,2.88c.34.93.68,1.95,1.1,3,3,6.35,5.76,10.92,8.21,13.8L323,255c5.5,7.11,9.23,16.34,11.09,27.86-.51.34-.93.68-1.27.93a31.2,31.2,0,0,1-1.27,5.67,51.08,51.08,0,0,1-1.27,7,1.28,1.28,0,0,0,1,1.27l-.17.17a2.58,2.58,0,0,0,2,1h.76a42.33,42.33,0,0,0,4.49-.34,25.22,25.22,0,0,1,4.4-.17c-.85-.08,2.29-.25,9.49-.51l.25.59c.59,0,3-.25,7.28-.85,1.86-.25,3.64-1.44,5.25-3.56q5.59-6,7.11-11.94a25.38,25.38,0,0,0,3-7.37,17.29,17.29,0,0,0,.08-7.79c0-2.2-.85-6-2.46-11.6a34.82,34.82,0,0,1-1.78-8.89c0-.85.08-1.78.17-2.63a41.29,41.29,0,0,1-1.78-10.08,68,68,0,0,1,.42-10.16c2.71-6.69,5.08-11,7-13.13a.64.64,0,0,1-.17-.34h0a9.52,9.52,0,0,1,.17-1.69Zm-12.7,18.63c-1.19,8.72-1.69,14.31-1.44,16.85,2.37,6.44,4,10.92,5,13.38a29.32,29.32,0,0,1,2.12,10.42,26.32,26.32,0,0,1-.25,3.64c0-.17-.08-.25-.08-.34v-.34a29,29,0,0,1-7.88,19.39,2.23,2.23,0,0,1-1.27,1.36,35.56,35.56,0,0,1-6,.93H349.7c-1.69-.08-3.39,0-5.08.08-2,.34-3.64.68-4.57.85-1.1-.25-1.86-.42-2.37-.59a46,46,0,0,1,2.37-13,61.81,61.81,0,0,0-4.32-12c-.08-3.13-1.78-7-5.17-11.94-7.28-7.37-10.76-15-10.42-22.78a9.18,9.18,0,0,1-1.86-5.5,18.32,18.32,0,0,1,0-3v-6.52a5.74,5.74,0,0,1,.85-3.47c-.08-.08-.08-.08-.17-.08l-.08-.08c6.86.08,11.94.17,15.33.17a1,1,0,0,0-.59.93c-.08.51-.17.93-.25,1.36a47.43,47.43,0,0,0-1,5,8.53,8.53,0,0,1-.08,2.54,12.92,12.92,0,0,0-.25,2.54v1.1l.08.93a119.58,119.58,0,0,0,2.63,12.36c1,1.86,2.12,3.73,3.3,5.5a36.45,36.45,0,0,1,3.3,5.5,30.34,30.34,0,0,1,6.78,10.42c1.1,1.69,2.2,2.46,3.22,2.2a4.15,4.15,0,0,0,2.37-.93,3.49,3.49,0,0,0,.08-1.86,42,42,0,0,1-5.84-21.77,52.42,52.42,0,0,1,8.3-28l10.16-.25a8,8,0,0,0,2.79,1.1,6.64,6.64,0,0,0-.42,1.19h0a134.68,134.68,0,0,0-4.57,12.87Zm55.13,70.46c.85,0,1.52-.51,2-1.61a67.54,67.54,0,0,0,3.39-13.55,7.21,7.21,0,0,0-1.52-5.84c-5.84-.59-8.47-.85-7.79-.85a13.49,13.49,0,0,0-3.64.51,10.71,10.71,0,0,0,.25-2.37l-.59-5.34a27.39,27.39,0,0,0-.85-5.17l-.34-1.69H414a15.63,15.63,0,0,1,1.95.34c.85.08,1.69.17,2.46.17a2.17,2.17,0,0,0,2.63-2,1.86,1.86,0,0,0-.17-1.19c-.34-1.44-1-4-2.12-7.37a56.71,56.71,0,0,1-1.95-7.45c-.42-.59-.93-1.19-1.44-1.78a7.91,7.91,0,0,0-1.27-1.1,1.77,1.77,0,0,0-1.44-.34c-.17,0-.25,0-.34-.08h-4.66a5.52,5.52,0,0,0-1.52.34,1.62,1.62,0,0,0-.68.34h-.76l-.34-5.34c-.08-1.78-.42-5.67-.42-5.67h.85a4.3,4.3,0,0,0,2,.51,2.47,2.47,0,0,1,.68.17H410c.08.08.51-.17,1.27-.68a2.85,2.85,0,0,0,1.36.85,2.51,2.51,0,0,0,2.63-1.44,3,3,0,0,0,.59-1.27,73,73,0,0,1,2.46-17.62,3.21,3.21,0,0,0,.51-2.46,3.69,3.69,0,0,0-2.63-1.52,48.87,48.87,0,0,0-4.91.68H408s-.51.25-.76,0h-2.29a2,2,0,0,1-1.78.34,33,33,0,0,1-3.47-.34h-.85a46,46,0,0,0-7.62-.34,17.32,17.32,0,0,0-7.45,1.86,3.47,3.47,0,0,0-.93-.08c-1.61,0-3.13.85-4.66,2.46l1-.76a.54.54,0,0,0,0-.51,2.65,2.65,0,0,0-.85-.42,5.9,5.9,0,0,0-3,1.95,56.38,56.38,0,0,0-2,14.06,80.16,80.16,0,0,0,1.36,15.58,101.52,101.52,0,0,0,4.32,13.8,58.78,58.78,0,0,1,3.64,14,39.45,39.45,0,0,1,1.1,12.62c-.34,4.07-.93,8.3-1.69,12.45a1.18,1.18,0,0,0-.42.85,1,1,0,0,0,.25.93,48.4,48.4,0,0,0,4.91,1.78l31.5-.68a1.63,1.63,0,0,0,1,.34ZM389,291.7l-.68-.17v-.76a35.6,35.6,0,0,0,1.78-12.62,53.78,53.78,0,0,0-1.86-12.2c-3.56-11.52-6-19.48-7.45-23.88a54.33,54.33,0,0,1-2.37-15.58,40.81,40.81,0,0,1,1.1-9.06,28.68,28.68,0,0,1,9.15-3H411.1c-.34,3.64-.76,7.2-1.27,10.84a19.7,19.7,0,0,0-4.49.25,39,39,0,0,1-4.4.51c-2.2,1.19-3.13,2.63-2.88,4.32a88.85,88.85,0,0,0,.93,12,1.6,1.6,0,0,1,.17.68l-.08.68.17.93q.64,3.3,4.32,3.56a8.53,8.53,0,0,0,1.95-1l.08-.08.59-.08h1.61a20.58,20.58,0,0,1,3.39.51,25.87,25.87,0,0,1,1.1,2.71,5.67,5.67,0,0,0,1.44,2.71v.51a5.41,5.41,0,0,0,.25,2.2l.42.59v-.08h-.76s-4.83.08-7.28-.17c-1.95.34-2.88,1.36-2.63,3.13a60.52,60.52,0,0,1,2.63,19.82c.42,2.2,1.27,3.3,2.46,3.22a6.6,6.6,0,0,0,1.78-.34l.59-.25c3.39.59,5.84.93,7.54,1.1a52.65,52.65,0,0,1-1.86,8.55H390.35c-.08.59-.17.59-.25.68l-.17.08c-.51-.17-.76-.17-.93-.25Zm93.84-20.92c-.25-1-.42-1.86-.59-2.29a29.56,29.56,0,0,0-3.56-8,23.65,23.65,0,0,0-7.2-8.38c-9.4-6.86-16.51-11.86-21.34-15.07l.76.85h1.36l.93.68h.68a13.63,13.63,0,0,1,4.23-1.1h.59c2.12.25,3.39.34,3.73.34,3.13.08,5.08.25,5.84.25,1.27-.17,1.78-.76,1.27-1.69v-1l.68.08v-1.52s-.34-2.46-.85-8.72a12.93,12.93,0,0,0-.25-2.54,13.85,13.85,0,0,0,.17-1.86c0-2.71-1-5.76-3.13-9.32-1.69-1.86-4.66-3.47-8.89-4.74-1.44.08-3.81.51-7.28,1a68.41,68.41,0,0,1-7.28.85c-7.45.34-13.89,3.64-19.31,10-2.79,6.18-4.15,11.43-4.15,15.75,1,5.84,3,10.59,6.27,14.23a87.11,87.11,0,0,0,10.25,7.37c6.1,3.9,9.65,6.18,10.59,6.86l1-.51a29.75,29.75,0,0,0-7.2-1.19c-4.57-.25-7-.42-7.28-.42a5.65,5.65,0,0,0-3.22,2.71,67.14,67.14,0,0,1,1.1,12.36c0,2.46.85,6.27,2.63,11.26a22.3,22.3,0,0,1,3.22,4.74,15.75,15.75,0,0,0,3.73,4.49,22,22,0,0,0,7.37,1.86q5.84.51,8.13.76c6.35-.68,11.69-2.29,15.84-4.83l3-3c3.64-3.81,5.67-7.54,6.1-11.26.25.25.51.42.76.68.34-1,.68-1.86.85-2.29l.34-.76a2.34,2.34,0,0,0-.08-.76v-.68a1.48,1.48,0,0,0-1.19-1.61c-.08-.08-.08-.08-.17-.08l-.08-.08q2,0,2-1.52c-.17-.93-.34-1.44-.34-1.78Zm-5.93,2.79c0,4.91-1.86,9.57-5.5,14.14-.68.25-1.69.68-3,1.27s-2.29,1-3,1.27a16.56,16.56,0,0,1-5.59,2.46c-1.78-.08-3.13-.17-4.07-.17a18.91,18.91,0,0,1-10.59-1.86,47.18,47.18,0,0,1-7.62-9.82q-.51-2.67-.76-4.07a6.45,6.45,0,0,0-.25-1.78,7.58,7.58,0,0,1-.17-1.95,5.69,5.69,0,0,0-.34-2l.08-.17c0-.08.08-.17.08-.25v-1.78a2.77,2.77,0,0,1,.68-.17v-2.12h.25c.08.68.25.68.25.68h.17c4.91.51,8.64.85,11,1,.59,3.73,1,6.61,1.19,8.55a15.08,15.08,0,0,0,1.78,8.13,2.22,2.22,0,0,1,1.27-.17,6.54,6.54,0,0,1,1.27.17,6.54,6.54,0,0,0,1.27.17c3.73-.59,6.1-2.46,7.11-5.84a7.31,7.31,0,0,1-.34-2.37,11.5,11.5,0,0,1,.25-2.46,22.52,22.52,0,0,0,.25-2.37,13.69,13.69,0,0,0-4-7.45,50.44,50.44,0,0,0-8.47-6.18c-9.57-5.25-15.92-8.81-19-10.76-2.54-2.37-4-4.23-4.4-5.67a35.57,35.57,0,0,1-1.86-7.88l.17-3.39a76.39,76.39,0,0,1,2.37-9.4c1.44-1.27,2.46-2.2,3-2.71a29.35,29.35,0,0,1,3.56-2.88,71.07,71.07,0,0,1,7.11-1.52c3.9-.59,5.76-.85,5.42-.85a13.85,13.85,0,0,1,1.86.17,3.6,3.6,0,0,1,.93-.17,8.53,8.53,0,0,0,2.12-.25,16.66,16.66,0,0,1,2-.25c4-.08,6.69,1.52,8.21,4.83A70.42,70.42,0,0,1,464,227.85q-.38-1.65-.51-2.54a21.14,21.14,0,0,0,1.61,6.44c.34.17.51.34.68.34l-6.27-.76c-1.95.25-3.39.42-4.4.59l.17-.08a16.5,16.5,0,0,0-2.12.17h-1a2.88,2.88,0,0,0-.85.08l-.34-3c-.59-4.49-2.54-6.78-5.84-6.78-1.69,0-3.22,1-4.49,3.13A6.69,6.69,0,0,0,439,230.9a12.71,12.71,0,0,0,3.13,8.55,32,32,0,0,1,3.64,2.2c1.27.93,3.22,2.12,5.84,3.64a44.46,44.46,0,0,1,5.84,4,3.06,3.06,0,0,0-.34-.42c1.52.85,2.63,1.52,3.3,1.95,4.23,2.46,7.2,4.83,8.89,7.28h.85A28.67,28.67,0,0,1,477,270l-.68-.68a14.22,14.22,0,0,1,.59,4.23Zm-20.33.76a3.74,3.74,0,0,1,.34,2.12,17.14,17.14,0,0,1-.34,2.2,37.73,37.73,0,0,1-2.2-8,4.31,4.31,0,0,0,.34-.93c-.34-1.27-.68-2.54-1.1-3.73l.34.42c2,2.71,3,5.25,2.63,8Zm-11.69-45a3.47,3.47,0,0,1,.08-.93,36.29,36.29,0,0,1,1.19,5.25,5.82,5.82,0,0,1-1.27-3.47v-.85Z"/></svg>