<svg id="Camada_1" data-name="Camada 1" xmlns="http://www.w3.org/2000/svg" viewBox="0 0 640 427"><defs><style>.cls-1{fill:#feb012;}.cls-2{isolation:isolate;}</style></defs><title>thumb-etuhde</title><rect width="640" height="427"/><path class="cls-1" d="M318,189.28a4.9,4.9,0,0,0-.48-.2c-1.06-.42-2.15-.78-3.25-1.1-2.09-.62-4.17-1.18-6.28-1.71-2.87-.7-5.74-1.34-8.63-1.91a30.5,30.5,0,0,0-3.57-.46c-1.12-.08-2.25-.12-3.37-.1s-2.45.1-3.67.24a43.33,43.33,0,0,0-5.32.92,40.72,40.72,0,0,0-4.05,1.18c-.08.1-.2.06-.32.16a.33.33,0,0,1,.26-.22c.08,0,.14-.14.24-.14l2.17-1.57a54.83,54.83,0,0,0,5.9-5.1,149.76,149.76,0,0,0,10.48-11.52,29.8,29.8,0,0,0,3.45-5.32,49.85,49.85,0,0,0,4.15-11.78,60,60,0,0,0,1.06-6.26c.22-1.89.36-3.79.44-5.7.06-1.44.06-2.87,0-4.29s-.1-2.65-.24-4a4.54,4.54,0,0,1,0-.52s0-.06,0-.1a10.88,10.88,0,0,1-.12-1.16h0c-.1-.16-.06-.32-.06-.56a1.12,1.12,0,0,1,.12.42l.54,2.71a.68.68,0,0,1,0,.2l.42,2.11,1.14,6c.42,2.17.82,4.33,1.22,6.5.36,1.89.7,3.77,1.06,5.66.38,2.07.78,4.13,1.16,6.2.28,1.53.56,3.07.86,4.6l1.08,5.86c.4,2.25.82,4.48,1.22,6.72.34,1.87.68,3.75,1,5.62.3,1.65.58,3.29.86,5,.2,1.18.42,2.35.54,3.53A.29.29,0,0,0,318,189.28Z"/><path class="cls-1" d="M312.54,205c0,.16-.16.2-.26.3-.6.64-1.18,1.3-1.73,2a151.45,151.45,0,0,0-9.31,13.18,35.68,35.68,0,0,0-4.19,9.71,44,44,0,0,0-1.26,6.44c-.14,1.1-.2,2.23-.26,3.41a1,1,0,0,1-.12-.48c-.18-.66-.34-1.34-.52-2a58.37,58.37,0,0,0-3.41-9.45c-1.91-4.29-4-8.47-6.32-12.58a29.72,29.72,0,0,0-4.46-5.92,53.81,53.81,0,0,0-13-10,68.22,68.22,0,0,0-12.92-5.56c-.58-.18-1.16-.36-1.77-.52-.38-.06-.74-.2-1.1-.28a1,1,0,0,1-.34-.1.55.55,0,0,1,.4,0c.74.12,1.46.24,2.21.38l2.55.46a.34.34,0,0,1,.2.06c.62.06,1.22.2,1.85.32l7.18,1.34,7.91,1.51,7.47,1.42,6.66,1.28c2.29.44,4.58.88,6.88,1.34l10.09,2c2.25.44,4.5.9,6.72,1.4C311.94,204.85,312.24,204.93,312.54,205Z"/><path class="cls-1" d="M322.88,203.49s0,0,0,0l-.7.94a19.25,19.25,0,0,0-2.31,4.29c-.94,2.33-1.77,4.72-2.57,7.1-1.44,4.23-2.85,8.51-4.31,12.74a44.15,44.15,0,0,1-3.81,8.35,24.73,24.73,0,0,1-4,5.16,14.18,14.18,0,0,1-5.72,3.55,10.66,10.66,0,0,1-4.35.42V246a11.19,11.19,0,0,0,2.11-3,53,53,0,0,0,2.71-6.42c1.22-3.37,2.31-6.78,3.39-10.19.08-.28.18-.56.28-.84.22-.78.46-1.59.7-2.37a56.69,56.69,0,0,1,3.41-8.59,25.81,25.81,0,0,1,3.61-5.62,14.91,14.91,0,0,1,11.26-5.54.52.52,0,0,1,.3,0S322.88,203.49,322.88,203.49Z"/><path class="cls-1" d="M323.24,198.31l0,0,0,0-1.44-.38a17,17,0,0,0-3.19-.46c-1.34-.08-2.69-.06-4,0s-2.63.08-4,.14c-1,0-2,.08-3,.14l-4.37.22-4.11.2c-1.1.06-2.19.1-3.29.14-.88,0-1.79,0-2.67,0a38.19,38.19,0,0,1-9.05-1.16,18.79,18.79,0,0,1-6.22-2.83,11.8,11.8,0,0,1-4-4.78,8.17,8.17,0,0,1-.52-1.49s0,0,.08,0a0,0,0,0,1,0,0,8.5,8.5,0,0,0,2.53.72,28.33,28.33,0,0,0,3.69.3c1,0,2.09.06,3.13,0,1.55,0,3.09-.08,4.64-.16l3.05-.16,3.87-.26c.3,0,.6,0,.9,0a1.64,1.64,0,0,1,.62-.06,7.4,7.4,0,0,1,1.16-.08.85.85,0,0,1,.44-.06,9.46,9.46,0,0,1,1.51-.08,1.86,1.86,0,0,1,.66-.06,4.3,4.3,0,0,1,.88,0,1.87,1.87,0,0,1,.74-.06h3.11a.28.28,0,0,1,.22,0,3.07,3.07,0,0,1,.74,0,1.71,1.71,0,0,1,.64.06,14,14,0,0,1,1.59.1c.32,0,.64.08,1,.12a.4.4,0,0,1,.3.06,15.08,15.08,0,0,1,1.91.3.22.22,0,0,1,.16,0,15.07,15.07,0,0,1,1.89.42,16.72,16.72,0,0,1,4.76,2.17.85.85,0,0,0,.14.1s.06,0,.08.06.1,0,.08.08v0h.18s.06,0,.08.06a.37.37,0,0,1,.2.14s.06,0,.08.06a.6.6,0,0,1,.28.22h0a8.5,8.5,0,0,1,1.36,1.18,13.84,13.84,0,0,1,1.95,2.49.62.62,0,0,1,.12.26.18.18,0,0,1,.1.18.13.13,0,0,1,.08.14.17.17,0,0,1,.08.14s.06,0,.06.08a.32.32,0,0,1,.08.14v.06a.2.2,0,0,0,0,.06s0,0,0,.08l0,0,0,0a.07.07,0,0,1,0,.06l0,.08A11.21,11.21,0,0,1,323.24,198.31Z"/><path class="cls-1" d="M332.33,185.67A14.86,14.86,0,0,1,328,195.86a10,10,0,0,1-.82.78c-.08.08-.12.06-.12,0,0-.3,0-.6,0-.9a18.7,18.7,0,0,0-1.18-5.36c-1.12-3.25-2.43-6.42-3.69-9.61s-2.71-6.64-4-10a46.24,46.24,0,0,1-2.25-7.69,29.85,29.85,0,0,1-.54-4.62,19.33,19.33,0,0,1,.5-5.26,12,12,0,0,1,2.93-5.5,11.88,11.88,0,0,1,1.61-1.38.12.12,0,0,1,.14,0,13.13,13.13,0,0,0,.64,4.82,66.75,66.75,0,0,0,2.31,6.74c1.24,3.21,2.59,6.38,3.93,9.55a1.52,1.52,0,0,1,.08.22s0,0,0,.08a.14.14,0,0,1,.06.12c.82,1.75,1.57,3.53,2.21,5.34a47.33,47.33,0,0,1,2,7.06A21.9,21.9,0,0,1,332.33,185.67Z"/><path class="cls-1" d="M352.5,240.85a42.12,42.12,0,0,1-8.83-4.64,37.58,37.58,0,0,1-6.5-5.6C336,229.37,335,228,334,226.7c-2.71-3.51-5.32-7.08-7.71-10.84a20,20,0,0,1-1.16-2c0-.06,0-.16-.16-.18-.1.16-.22.3-.32.48-.48.8-1,1.59-1.42,2.39-5.32,9.11-10.52,18.28-15.71,27.47q-5.45,9.63-10.84,19.31c-.38.68-.78,1.34-1.1,2a1.4,1.4,0,0,0-.26.48.72.72,0,0,1-.2.14h0a3,3,0,0,1-.28.7,3.86,3.86,0,0,0-.36.62,1.48,1.48,0,0,0-.28.56.81.81,0,0,0,.1-.18.59.59,0,0,0,0,.18l.28-.48a3.23,3.23,0,0,0,.34-.56.65.65,0,0,0,.2-.42h0c.1,0,.12,0,.12-.06s0,0,0-.06.06,0,.06-.08a.06.06,0,0,0,.06-.06s.06-.06.08-.1a67.55,67.55,0,0,1,7.16-8.69,63.51,63.51,0,0,1,7.83-6.84,48.63,48.63,0,0,1,9.63-5.6,29.62,29.62,0,0,1,5.66-1.85c2.89-.56,5.8-1,8.73-1.42,2.19-.3,4.37-.56,6.58-.72a56.37,56.37,0,0,1,6.38-.26l1.71.06,3,.18a1.71,1.71,0,0,0,.64.06C352.6,240.87,352.54,240.87,352.5,240.85Zm-.36,0a.38.38,0,0,1-.16,0l-.26,0a29.49,29.49,0,0,0-3-.18c-1.14,0-2.29-.12-3.43,0l-3.81.22c-1.57.1-3.11.26-4.66.44q-3.61.42-7.22,1c-1.67.28-3.31.52-4.94.94a33.07,33.07,0,0,0-7.2,2.79,52.76,52.76,0,0,0-6.06,3.65,64.24,64.24,0,0,0-7.57,6.26,56.85,56.85,0,0,0-4.25,4.54,61.14,61.14,0,0,0-4.29,5.56l-.06.08,0,0-.06.08a.1.1,0,0,0,0,.08s0,0-.28.08h0c.22,0,.22,0,.2,0l0,0-.22.34,0,0h0c-.1.16-.2.34-.32.52l0,0h0a1.5,1.5,0,0,1-.14.24l.14-.24,0,0h0a4.42,4.42,0,0,0,.3-.52l0,0,0,0c.08-.12.14-.24.22-.36h0a.87.87,0,0,1,.1-.24h0l0,0a.15.15,0,0,0,0-.08l.08-.16a3.43,3.43,0,0,1,.26-.46,0,0,0,0,1,0,0l0-.06c.56-1.06,1.16-2.11,1.75-3.15,1.34-2.45,2.71-4.88,4.07-7.3s2.59-4.58,3.87-6.86,2.69-4.78,4.05-7.16l3.67-6.46c1.55-2.73,3.11-5.46,4.66-8.17s3.05-5.32,4.6-8c.8-1.38,1.61-2.77,2.45-4.11.18-.28.2-.26.34,0a27.66,27.66,0,0,0,1.61,2.67c2.35,3.61,4.9,7.08,7.55,10.48a42.91,42.91,0,0,0,5,5.62A41.75,41.75,0,0,0,350,240a21.19,21.19,0,0,0,2.43,1,.67.67,0,0,0-.3-.1Z"/><path class="cls-1" d="M358.46,242.9a1.52,1.52,0,0,1-.18.36s-.06,0-.06,0a10.11,10.11,0,0,0-2.17-3,58.88,58.88,0,0,0-5.84-5.12c-2.87-2.25-5.82-4.39-8.75-6.56-.08-.06-.16-.08-.2-.18-1.26-.84-2.49-1.73-3.67-2.67a53.45,53.45,0,0,1-4.82-4.23,28.19,28.19,0,0,1-4.52-5.6,16.32,16.32,0,0,1-2.19-6.52,14.9,14.9,0,0,1,.5-5.4c.06-.22.12-.42.18-.62s.1-.08.14,0a6.41,6.41,0,0,1,.52.76,18.33,18.33,0,0,0,3.39,3.65c2,1.71,4.05,3.31,6.14,4.9l10.19,7.77a48,48,0,0,1,4.7,4.09,32.08,32.08,0,0,1,4.86,5.92,17.6,17.6,0,0,1,2.25,5.2A11.88,11.88,0,0,1,358.46,242.9Z"/><path class="cls-1" d="M376.5,181.63a.91.91,0,0,1-.46.1,11.68,11.68,0,0,0-2.77,1.08,50.66,50.66,0,0,0-5.34,3.35c-3.07,2.17-6,4.48-9,6.78-.36.28-.7.58-1.1.84-.92.78-1.85,1.53-2.81,2.25a54.92,54.92,0,0,1-6.84,4.48,28.22,28.22,0,0,1-5.6,2.41,14.58,14.58,0,0,1-3.23.6,11.84,11.84,0,0,1-1.69.06,3.43,3.43,0,0,1-.64,0,12.73,12.73,0,0,1-3.47-.6,8.83,8.83,0,0,1-1.71-.66,14.57,14.57,0,0,1-2.27-1.22s-.08-.06-.06-.1a.4.4,0,0,1,.28-.12,17.84,17.84,0,0,0,4.62-2.13c2-1.26,3.87-2.65,5.76-4.05,2.27-1.69,4.52-3.39,6.78-5.08,1.83-1.36,3.63-2.77,5.48-4.09a48.5,48.5,0,0,1,6.24-3.81,28,28,0,0,1,6.26-2.33,16.67,16.67,0,0,1,4.68-.44,11.44,11.44,0,0,1,6.72,2.49C376.38,181.49,376.46,181.53,376.5,181.63Z"/><path class="cls-1" d="M382.5,249.84a.05.05,0,0,1-.06-.06v0a.44.44,0,0,1-.2-.18,3.2,3.2,0,0,1-.58-.58,2.43,2.43,0,0,1-.32-.32l-.18-.14c-.88-.86-1.75-1.73-2.61-2.61a.36.36,0,0,1-.1-.14.93.93,0,0,1-.14-.14.06.06,0,0,1-.06-.06c-.68-.66-1.34-1.32-2-2-1.34-1.34-2.67-2.67-4-4-2.31-2.31-4.6-4.64-6.9-6.94l-6.06-6.12c-1.95-2-3.87-3.93-5.82-5.92-1.22-1.24-2.47-2.51-3.69-3.77-1.83-1.87-3.67-3.75-5.5-5.64-1.51-1.57-3-3.13-4.52-4.72a7,7,0,0,1-.8-.92,42.17,42.17,0,0,0,5.7-1.65q6.17-2,12.16-4.62a36.73,36.73,0,0,0,8.45-5.14,42.66,42.66,0,0,0,7-7.12,1.3,1.3,0,0,1,.16-.18l.28-.4a.14.14,0,0,1,.26-.1c0,.08,0,.16-.08.18a.09.09,0,0,1-.1,0,.76.76,0,0,1-.16.34c-.36,1-.72,1.95-1.06,2.93a54.15,54.15,0,0,0-1.87,7.14c-.4,2-.74,4-1.06,6-.24,1.61-.46,3.21-.66,4.84-.16,1.4-.32,2.83-.46,4.23a27.75,27.75,0,0,0-.1,3.87,33.06,33.06,0,0,0,.52,4.66,53.44,53.44,0,0,0,4.41,13.61,68.68,68.68,0,0,0,7.79,12.7l1,1.3s.06,0,.06.08h0a.14.14,0,0,1,.08.12s.06,0,.06.08.06,0,.06.08a1.73,1.73,0,0,1,.36.4,4.2,4.2,0,0,1,.48.56c.1.08.2.14.2.28a.1.1,0,0,1,.08,0Z"/><path class="cls-1" d="M382.56,249.92a.05.05,0,0,1-.06-.06A.05.05,0,0,1,382.56,249.92Z"/><path class="cls-1" d="M382.6,250h0v0Z"/><path class="cls-1" d="M386.56,158.91s0,0-.06,0l.12,0a.12.12,0,0,1,0-.08S386.58,158.89,386.56,158.91Zm-.38.24-.06,0,.16,0s0-.06.06-.08l-.06,0A.12.12,0,0,0,386.17,159.16Zm-61.45-7.39Zm62.91,6.48a2.94,2.94,0,0,0-.56.28.07.07,0,0,0-.06,0l0,0-.06,0a1,1,0,0,0-.42.2s0,0,0,0a.16.16,0,0,0-.14.06h0a.18.18,0,0,0-.14.06.16.16,0,0,0-.14.06.18.18,0,0,0-.16.08.89.89,0,0,0-.32.12c-2,.88-4,1.69-6.1,2.37a64.8,64.8,0,0,1-12.16,2.81c-1.75.22-3.49.38-5.26.44a47.42,47.42,0,0,1-7.73-.32,30,30,0,0,1-5-1c-1.75-.52-3.41-1.2-5.1-1.89-3.51-1.38-7-2.87-10.34-4.54a57.83,57.83,0,0,1-5.6-3c-1.22-.78-2.41-1.61-3.59-2.43a3.73,3.73,0,0,0-.56-.42.14.14,0,0,0-.18-.1.55.55,0,0,0,.16.2h0a4.86,4.86,0,0,0,.5.62l.12.2a42.44,42.44,0,0,1,5.4,9.51,36.22,36.22,0,0,1,2.15,7.39c.18,1.06.32,2.15.46,3.23s.26,2.13.38,3.21.2,1.91.28,2.87c.12,1.32.22,2.65.32,4,.08,1.08.12,2.17.16,3.25,0,.84.06,1.69,0,2.53a5.45,5.45,0,0,1-.08.78,7.45,7.45,0,0,0,1.06-.52c2.51-1.32,5-2.73,7.47-4.11,7.14-4,14.29-8,21.39-12.1q9.57-5.45,19.12-11c.66-.38,1.32-.74,2-1.16a6.39,6.39,0,0,0,.8-.46,1.22,1.22,0,0,0,.48-.3.54.54,0,0,0,.34-.2,2.36,2.36,0,0,0,.54-.3s.06,0,.08-.06,0,0,0,0l.48-.28a.56.56,0,0,0,.28-.2h0a.35.35,0,0,0-.28.12Zm.18,0,0,0h0a4.79,4.79,0,0,0-.44.24h0l0,0,0,0-.12.06a4.25,4.25,0,0,1-.42.22l0,0h0l-.06,0s0,0-.06,0a.81.81,0,0,1-.18.1l-.06,0a.15.15,0,0,1-.08,0l-.06,0a1.08,1.08,0,0,1-.26.14l-.12.06a5.75,5.75,0,0,1-.84.48h0l-.12.08c-.84.52-1.71,1-2.55,1.49q-5.57,3.22-11.14,6.4c-3.71,2.13-7.41,4.23-11.12,6.34l-10,5.7-6.14,3.47c-1.95,1.1-3.91,2.19-5.88,3.27-1.2.66-2.39,1.32-3.61,1.93-.26.12-.3.1-.26-.16a23.65,23.65,0,0,0,0-4c0-1.26-.14-2.53-.24-3.81l-.24-2.87c-.14-1.44-.28-2.89-.48-4.33s-.36-3-.62-4.48a35.42,35.42,0,0,0-1.71-6.28,42.59,42.59,0,0,0-5.94-10.8l0-.06,0,0h0l-.08-.1-.36-.42s0,0,0,0h0a3.43,3.43,0,0,0,.4.36l0,0,.1.08a54.47,54.47,0,0,0,7.79,4.8q4.21,2.14,8.59,3.93c2.51,1.06,5,2.09,7.61,3a32.92,32.92,0,0,0,9.45,1.55,51.92,51.92,0,0,0,5.86-.1c1.59-.14,3.15-.3,4.72-.54a64.45,64.45,0,0,0,8.87-2,66.41,66.41,0,0,0,8.23-3.07l.16-.1.08,0,.1-.06.06,0,.1,0,.06,0,.12,0,.06,0,0,0h0l.34-.16.12-.06s.06,0,.08,0h0l0,0c.14-.08.3-.14.44-.22l0,0h0a1.23,1.23,0,0,1,.24-.1.87.87,0,0,0-.24.1Z"/><path class="cls-1" d="M388.12,158l-.06.06S388.08,158.05,388.12,158Z"/><path class="cls-1" d="M388.12,158.11h-.06A0,0,0,0,1,388.12,158.11Z"/><path class="cls-1" d="M294.5,267.38l-.28.48h-.08a1.24,1.24,0,0,1,.28-.56s0,0,0,0h0S294.48,267.36,294.5,267.38Z"/><path class="cls-1" d="M388.18,158v.08h0C388.06,158.05,388.08,158.05,388.18,158Z"/><path class="cls-1" d="M352.64,241a1.71,1.71,0,0,1-.64-.06l-.3-.1c-.48-.16-1-.28-1.49-.4a56.93,56.93,0,0,0-9-1.75c-1.08-.12-2.19-.2-3.29-.24-.78,0-1.57-.06-2.35,0a41.74,41.74,0,0,0-8.33,1,39.7,39.7,0,0,0-6.9,2.27,35.42,35.42,0,0,0-4.52,2.51,65.18,65.18,0,0,0-6.9,4.8,43.5,43.5,0,0,0-4.6,4.21,51.26,51.26,0,0,0-5,6.24c-1.26,1.87-2.43,3.77-3.55,5.72-.06.1-.1.28-.26.28a.12.12,0,0,1-.08,0c.34-.7.72-1.36,1.1-2Q302,253.65,307.43,244c5.2-9.17,10.38-18.36,15.71-27.47.46-.8.94-1.59,1.42-2.39.1-.16.22-.32.32-.48.14,0,.12.12.16.18a20,20,0,0,0,1.16,2c2.39,3.73,5,7.32,7.71,10.84,1,1.32,2.07,2.67,3.21,3.91a37.58,37.58,0,0,0,6.5,5.6,41.64,41.64,0,0,0,8.83,4.64C352.54,240.87,352.6,240.87,352.64,241Z"/><path class="cls-1" d="M318,189.26a4.9,4.9,0,0,0-.48-.2c-1.06-.42-2.15-.78-3.25-1.1-2.09-.62-4.17-1.18-6.28-1.71-2.87-.7-5.74-1.34-8.63-1.91a30.5,30.5,0,0,0-3.57-.46c-1.12-.08-2.25-.12-3.37-.1s-2.45.1-3.67.24a43.33,43.33,0,0,0-5.32.92,40.72,40.72,0,0,0-4.05,1.18c-.08,0-.08,0-.08-.08s.14-.14.24-.14c1.36-.68,2.75-1.26,4.09-2a52.66,52.66,0,0,0,10-6.52,39,39,0,0,0,7.51-8.33,34.79,34.79,0,0,0,3.09-5.7c.58-1.36,1-2.79,1.46-4.19.56-1.75,1.08-3.51,1.49-5.32a51.51,51.51,0,0,0,1-5.8,45.55,45.55,0,0,0,.26-6.4c0-1.63-.18-3.25-.36-4.88s-.46-3.39-.76-5.08a.4.4,0,0,1,0-.34s0,0,0,0h0a0,0,0,0,1,.06,0l.42,2.11,1.14,6c.42,2.17.82,4.33,1.22,6.5.36,1.89.7,3.77,1.06,5.66.38,2.07.78,4.13,1.16,6.2.28,1.53.56,3.07.86,4.6l1.08,5.86c.4,2.25.82,4.48,1.22,6.72.34,1.87.68,3.75,1,5.62.3,1.65.58,3.29.86,5,.2,1.18.42,2.35.54,3.53A.54.54,0,0,1,318,189.26Z"/><path class="cls-1" d="M378.55,245.73v.06h0s-.06,0-.1,0,0-.06-.06-.06l-.14-.14c-.68-.66-1.34-1.32-2-2-1.34-1.34-2.67-2.67-4-4-2.31-2.31-4.6-4.64-6.9-6.94l-6.06-6.12c-1.95-2-3.87-3.93-5.82-5.92-1.22-1.24-2.47-2.51-3.69-3.77-1.83-1.87-3.67-3.75-5.5-5.64-1.51-1.57-3-3.13-4.52-4.72a7,7,0,0,1-.8-.92,42.17,42.17,0,0,0,5.7-1.65c4.11-1.38,8.19-2.93,12.18-4.64a36.73,36.73,0,0,0,8.45-5.14,43.31,43.31,0,0,0,7-7.1,1.3,1.3,0,0,1,.16-.18.06.06,0,0,1,.08,0h0v0a.63.63,0,0,1-.22.52,58.86,58.86,0,0,0-3.15,5.6,48.09,48.09,0,0,0-4.29,12.58c-.22,1.22-.36,2.45-.48,3.67a33.65,33.65,0,0,0-.1,4.72,30.93,30.93,0,0,0,1,7c.58,2,1.16,4.09,1.85,6.12a46.9,46.9,0,0,0,5.46,11.12,57.94,57.94,0,0,0,4.31,5.56c.44.5.86,1,1.32,1.46A.85.85,0,0,1,378.55,245.73Z"/><path class="cls-1" d="M312.54,205c0,.16-.16.2-.26.3-.6.64-1.18,1.3-1.73,2a151.45,151.45,0,0,0-9.31,13.18,35.68,35.68,0,0,0-4.19,9.71,44,44,0,0,0-1.26,6.44c-.14,1.1-.2,2.23-.26,3.41a1,1,0,0,1-.12-.48,64.4,64.4,0,0,0-1.85-13.26A39.8,39.8,0,0,0,286,211.17a33.25,33.25,0,0,0-4.54-4.52c-1.71-1.42-3.45-2.81-5.26-4.09a47.76,47.76,0,0,0-5.38-3.31A47.17,47.17,0,0,0,263,196c-2-.64-4-1.14-6-1.61-.28-.06-.32-.08-.38-.2v0a.45.45,0,0,1,.28,0c.62.06,1.22.2,1.85.32l7.18,1.34,7.91,1.51,7.47,1.42,6.66,1.28c2.29.44,4.58.88,6.88,1.34l10.09,2c2.25.44,4.5.9,6.72,1.4A4.8,4.8,0,0,1,312.54,205Z"/><path class="cls-1" d="M385,159.92c-.64.42-1.3.78-2,1.16q-9.54,5.51-19.12,11-10.69,6.08-21.39,12.1c-2.49,1.38-5,2.79-7.47,4.11a7.33,7.33,0,0,1-1.06.5c0-.28.06-.52.08-.78,0-.84,0-1.69,0-2.53-.06-1.08-.1-2.17-.16-3.25-.1-1.32-.2-2.65-.32-4-.08-1-.18-1.91-.28-2.87s-.24-2.13-.38-3.21-.28-2.15-.46-3.23a35.34,35.34,0,0,0-2.15-7.39,43.16,43.16,0,0,0-5.38-9.51l-.12-.2a.12.12,0,0,1,0-.08l0,0h0c.18,0,.26.14.36.24.42.4.8.86,1.22,1.28.82.86,1.71,1.65,2.59,2.47a53.85,53.85,0,0,0,4.39,3.61,41.46,41.46,0,0,0,12.14,6.32,35.72,35.72,0,0,0,7.12,1.51,51.45,51.45,0,0,0,6.34.1c1.53,0,3.05-.12,4.56-.26a50.8,50.8,0,0,0,6-1,48.75,48.75,0,0,0,9.75-3.37c1.79-.82,3.53-1.73,5.26-2.69.12-.06.24-.18.4-.12T385,159.92Z"/><path class="cls-1" d="M323.16,198.29h0l-1.44-.38a17,17,0,0,0-3.19-.46c-1.34-.08-2.69-.06-4,0s-2.63.08-4,.14c-1,0-2,.08-3,.14l-4.37.2-4.11.2c-1.1.06-2.19.1-3.29.14-.88,0-1.79,0-2.67,0a38.19,38.19,0,0,1-9.05-1.16,18.79,18.79,0,0,1-6.22-2.83,11.6,11.6,0,0,1-4-4.78,8.17,8.17,0,0,1-.52-1.49s0,0,.08,0a0,0,0,0,1,0,0,8.5,8.5,0,0,0,2.53.72,28.33,28.33,0,0,0,3.69.3c1,0,2.09.06,3.13,0,1.55,0,3.09-.08,4.64-.16l3.05-.16,3.87-.26c.3,0,.6,0,.9,0a2,2,0,0,1,.6,0h0a4.19,4.19,0,0,0,.5,0,1.32,1.32,0,0,0,.28,0,3.25,3.25,0,0,1,.44,0,.71.71,0,0,0,.2,0,3,3,0,0,1,.42,0l.16,0A52.45,52.45,0,0,1,312.89,193c2.61,1.24,5.22,2.51,7.79,3.81.74.38,1.49.76,2.19,1.18C323,198,323.16,198.09,323.16,198.29Z"/><path class="cls-1" d="M376.5,181.63a.91.91,0,0,1-.46.1,11.68,11.68,0,0,0-2.77,1.08,50.66,50.66,0,0,0-5.34,3.35c-3.07,2.17-6,4.48-9,6.78-.36.28-.7.58-1.1.84a46.86,46.86,0,0,1-14.69,5.46c-2.63.54-5.3.86-7.95,1.22-1.4.2-2.81.36-4.23.52-.32,0-.64,0-1,.08a.55.55,0,0,1-.46-.1.4.4,0,0,1,.28-.12,17.84,17.84,0,0,0,4.62-2.13c2-1.26,3.87-2.65,5.76-4.05,2.27-1.69,4.52-3.39,6.78-5.08,1.83-1.36,3.63-2.77,5.48-4.09a48.5,48.5,0,0,1,6.24-3.81,28,28,0,0,1,6.26-2.33,16.67,16.67,0,0,1,4.68-.44,11.44,11.44,0,0,1,6.72,2.49C376.38,181.49,376.46,181.53,376.5,181.63Z"/><path class="cls-1" d="M329,181.83c0,1.12-.14,2.27-.28,3.39-.26,2.31-.5,4.62-.82,6.92-.18,1.3-.34,2.59-.58,3.87,0,.22-.1.42-.16.64s-.12.06-.12,0c0-.3,0-.6,0-.9a18.7,18.7,0,0,0-1.18-5.36c-1.12-3.25-2.43-6.42-3.69-9.61s-2.71-6.64-4-10a46.24,46.24,0,0,1-2.25-7.69,29.85,29.85,0,0,1-.54-4.62,19.33,19.33,0,0,1,.5-5.26,12,12,0,0,1,2.93-5.5,11.88,11.88,0,0,1,1.61-1.38.12.12,0,0,1,.14,0,13.13,13.13,0,0,0,.64,4.82,66.75,66.75,0,0,0,2.31,6.74c1.24,3.21,2.59,6.38,3.93,9.55a1.52,1.52,0,0,1,.08.22.87.87,0,0,0,0,.1h0v0h0c.12.48.3,1,.4,1.46a55.51,55.51,0,0,1,.92,6.56A40.87,40.87,0,0,1,329,181.83Z"/><path class="cls-1" d="M358.46,242.9a1.52,1.52,0,0,1-.18.36s-.06,0-.06,0a10.11,10.11,0,0,0-2.17-3,58.88,58.88,0,0,0-5.84-5.12c-2.87-2.25-5.82-4.39-8.75-6.56-.08-.06-.16-.08-.2-.18a7.42,7.42,0,0,0-.56-.56,45.54,45.54,0,0,1-4-4.78,51.83,51.83,0,0,1-4-6.22c-1-1.77-1.75-3.63-2.59-5.46-1-2.27-2-4.58-3-6.92-.1-.24-.18-.48-.26-.72s-.12-.26,0-.38a6.41,6.41,0,0,1,.52.76,18.33,18.33,0,0,0,3.39,3.65c2,1.71,4.05,3.31,6.14,4.9l10.19,7.77a50.67,50.67,0,0,1,4.72,4.09,32.08,32.08,0,0,1,4.86,5.92,17.6,17.6,0,0,1,2.25,5.2A12.09,12.09,0,0,1,358.46,242.9Z"/><path class="cls-1" d="M322.88,203.53l-.7.94a19.25,19.25,0,0,0-2.31,4.29c-.94,2.33-1.77,4.72-2.57,7.1-1.44,4.23-2.85,8.51-4.31,12.74a44.15,44.15,0,0,1-3.81,8.35,24.73,24.73,0,0,1-4,5.16,14.18,14.18,0,0,1-5.72,3.55,10.66,10.66,0,0,1-4.35.42V246a11.19,11.19,0,0,0,2.11-3,53,53,0,0,0,2.71-6.42c1.22-3.37,2.31-6.78,3.39-10.19.08-.28.18-.56.28-.84a25,25,0,0,1,2.29-4.27,55.59,55.59,0,0,1,4.27-5.88,49.38,49.38,0,0,1,4.5-4.68c.78-.72,1.55-1.46,2.33-2.19,1.14-1,2.29-2.09,3.45-3.11.66-.58,1.3-1.14,2-1.69C322.56,203.63,322.68,203.49,322.88,203.53Z"/><path class="cls-1" d="M386.68,158.85a2.62,2.62,0,0,1-.06.26h0V159a2,2,0,0,1-.3.14h-.1v.06h.08c-.16.1-.36.12-.48.3a4.61,4.61,0,0,1-.8.46.36.36,0,0,0-.2,0l-.18.1c-1.61.92-3.25,1.77-4.92,2.55s-3.37,1.49-5.12,2.11a40.09,40.09,0,0,1-4.27,1.26c-1.24.3-2.49.56-3.75.74-.7.1-1.4.2-2.13.28s-1.49.16-2.23.2c-.9.06-1.83.08-2.73.14-1.85.12-3.67,0-5.52.06q-.63,0-1.26-.12c-.4,0-.8-.1-1.2-.16a21,21,0,0,1-2.25-.38,38,38,0,0,1-4.92-1.36c-.88-.32-1.75-.66-2.61-1s-1.61-.72-2.39-1.12c-1.22-.64-2.41-1.32-3.57-2.07s-2.35-1.61-3.47-2.47c-.72-.56-1.42-1.12-2.11-1.73-.86-.74-1.69-1.51-2.51-2.29-.52-.48-1-1-1.53-1.51L325,152a1.81,1.81,0,0,0-.2-.18l-.06,0a.18.18,0,0,1-.08-.12v-.06a0,0,0,0,1,0,0s.08,0,.12,0c1.18.82,2.37,1.65,3.59,2.43A53.94,53.94,0,0,0,334,157c3.39,1.69,6.84,3.17,10.36,4.56,1.69.66,3.37,1.34,5.1,1.89a30.24,30.24,0,0,0,5,1,47.32,47.32,0,0,0,7.73.32c1.77-.06,3.51-.22,5.26-.44a64.8,64.8,0,0,0,12.16-2.81,60.83,60.83,0,0,0,6.1-2.37.89.89,0,0,1,.32-.12s.12,0,.16-.06h0s.1,0,.14-.06.1,0,.14,0h0c0-.08.1-.06.14-.1s0,0,0,0a.12.12,0,0,1,.08,0s0,0,0,0Z"/><path class="cls-1" d="M295.47,239.27c0,.1,0,.2-.06.3-.18-.66-.34-1.34-.52-2a58.37,58.37,0,0,0-3.41-9.45c-1.91-4.29-4-8.47-6.32-12.58a29.72,29.72,0,0,0-4.46-5.92,53.81,53.81,0,0,0-13-10,66.88,66.88,0,0,0-12.92-5.54c-.58-.18-1.16-.36-1.77-.52.06-.18.22-.1.3-.08,1.08.2,2.15.38,3.23.62,0,0,0,0,.06,0l0,0a4.14,4.14,0,0,0,1,.24c1,.24,2.09.5,3.11.78,1.26.34,2.53.72,3.77,1.16s2.49.9,3.69,1.46c.62.28,1.24.56,1.85.86a49.76,49.76,0,0,1,4.48,2.59c1.4.9,2.75,1.91,4.07,2.91.78.6,1.57,1.22,2.31,1.87s1.46,1.2,2.17,1.83,1.26,1.22,1.85,1.87c.34.38.66.74,1,1.12.58.68,1.12,1.4,1.65,2.13a33.43,33.43,0,0,1,1.87,2.87c.66,1.14,1.26,2.33,1.83,3.53.36.78.68,1.57,1,2.37.42,1.1.8,2.21,1.12,3.35.26.88.48,1.79.7,2.67s.4,1.87.56,2.81c.12.64.2,1.28.32,1.95.08.46.1.9.16,1.36s.14,1.14.2,1.71a7.76,7.76,0,0,1,.06,1,16.56,16.56,0,0,1,.08,1.73A8.16,8.16,0,0,1,295.47,239.27Z"/><path class="cls-1" d="M381.34,248.64h0c-.1,0-.16-.08-.22-.14-.84-.82-1.65-1.67-2.47-2.51a.21.21,0,0,1-.08-.2h0c-.06,0-.06,0-.06,0-.38-.52-.86-.94-1.26-1.42-.6-.7-1.22-1.42-1.81-2.15s-1.2-1.53-1.79-2.31a40.56,40.56,0,0,1-2.45-3.69c-.66-1.1-1.26-2.23-1.83-3.39-.68-1.4-1.28-2.83-1.83-4.29-.38-1-.72-2-1.06-3.05-.56-1.77-1-3.53-1.53-5.32a18.37,18.37,0,0,1-.46-2.33c-.1-.72-.18-1.46-.24-2.19a45.32,45.32,0,0,1-.12-4.68c0-.8.1-1.59.18-2.39s.14-1.32.24-2c.14-.86.3-1.71.48-2.55a36.93,36.93,0,0,1,1.14-4.19c.4-1.16.82-2.33,1.3-3.47s1.06-2.43,1.67-3.61c.88-1.73,1.81-3.41,2.83-5a3.83,3.83,0,0,0,.48-.82h0c0-.06.06-.1.12-.08s0,0,0,.08c-.36,1-.72,1.95-1.06,2.93a54.15,54.15,0,0,0-1.87,7.14c-.4,2-.74,4-1.06,6-.24,1.61-.46,3.21-.66,4.84-.16,1.4-.32,2.83-.46,4.23a27.75,27.75,0,0,0-.1,3.87,33.06,33.06,0,0,0,.52,4.66,53.44,53.44,0,0,0,4.41,13.61,68.68,68.68,0,0,0,7.79,12.7l1,1.3.06.08h0s0,.12,0,.12h0a.81.81,0,0,0,.2.06v-.06h0a.66.66,0,0,0,.06.12h0C381.42,248.6,381.38,248.62,381.34,248.64Z"/><path class="cls-1" d="M352.16,240.85h0c-.06.06-.1,0-.14.06l-3-.18c-.56,0-1.12,0-1.71-.06a52.21,52.21,0,0,0-6.38.26c-2.21.18-4.39.44-6.58.72-2.93.4-5.84.84-8.73,1.42a28.27,28.27,0,0,0-5.66,1.85,48.63,48.63,0,0,0-9.63,5.6,63.51,63.51,0,0,0-7.83,6.84,67.37,67.37,0,0,0-7.16,8.67s-.06.06-.08.1l-.06.06a.11.11,0,0,0-.06.08s0,0,0,.06a.66.66,0,0,1-.12.06h0s0,0,.2,0h0c-.24,0-.22,0-.22-.08s.14-.4.14-.4H295v.1c.18,0,.16-.1.2-.14a1.4,1.4,0,0,1,.26-.48.14.14,0,0,0,.12-.08l.06-.1q1.81-3.25,3.91-6.32c.7-1,1.44-2,2.23-3s1.36-1.65,2.09-2.45,1.46-1.55,2.23-2.27,1.26-1.14,1.93-1.69c1-.8,2-1.59,3-2.35.24-.18.48-.36.72-.52,1-.66,1.93-1.3,2.91-1.93s1.95-1.18,2.93-1.79a21.44,21.44,0,0,1,2.87-1.46c1.1-.48,2.23-.9,3.37-1.28a37.82,37.82,0,0,1,3.93-1c.66-.14,1.32-.26,2-.36s1.22-.2,1.85-.26l1-.1c.66-.08,1.34,0,2-.12h.24c.58,0,1.18,0,1.77,0s1.44.06,2.17.1,1.32.1,2,.16,1.34.16,2,.24,1.42.22,2.15.34c1.28.22,2.57.52,3.85.82,1,.26,2.07.52,3.09.84A.86.86,0,0,0,352.16,240.85Z"/><path class="cls-1" d="M308.45,144.79a16.91,16.91,0,0,1-.1,1.73c-.06.4-.08.82-.1,1.24,0,.6-.12,1.18-.2,1.79s-.22,1.32-.34,2c-.28,1.49-.62,3-1,4.41-.48,1.77-1,3.51-1.63,5.26a31.16,31.16,0,0,1-2.19,5.12,36.72,36.72,0,0,1-3.21,5c-.52.68-1.08,1.34-1.65,2q-1.17,1.35-2.47,2.59c-.52.5-1.08,1-1.63,1.44-.74.62-1.49,1.24-2.27,1.83-1.2.9-2.47,1.75-3.75,2.55a58.16,58.16,0,0,1-5.6,3.07c-.82.4-1.67.76-2.49,1.14a.82.82,0,0,1-.36.1l2.17-1.57a54.83,54.83,0,0,0,5.9-5.1A149.76,149.76,0,0,0,298,167.81a29.8,29.8,0,0,0,3.45-5.32,49.85,49.85,0,0,0,4.15-11.78,60,60,0,0,0,1.06-6.26c.22-1.91.36-3.81.44-5.72.06-1.44.06-2.87,0-4.29s-.1-2.65-.24-4a4.54,4.54,0,0,1,0-.52s0-.06,0-.1a.45.45,0,0,1,.06-.32s0,0,0,0l0,.1a9.1,9.1,0,0,1,.36,1.79h0c.08.48.16.94.22,1.42s.22,1.14.28,1.73.16,1.06.24,1.59c0,.26,0,.52.08.78.08.54.1,1.08.16,1.61.1.84.1,1.69.16,2.51C308.51,142.32,308.51,143.56,308.45,144.79Z"/><path class="cls-1" d="M322.88,203.49s0,0,0,0a6.69,6.69,0,0,0-1.12.86l-1.42,1.2-.66.6c-.64.56-1.26,1.16-1.89,1.73l-2.13,1.93-.06,0c-1.3,1.22-2.59,2.49-3.83,3.77-.42.44-.82.92-1.22,1.4-.7.82-1.38,1.67-2,2.53-1.06,1.4-2,2.87-3,4.37-.54.9-1.08,1.81-1.55,2.75a4.29,4.29,0,0,1-.4.8c.22-.78.46-1.59.7-2.37a56.69,56.69,0,0,1,3.41-8.59,25.81,25.81,0,0,1,3.61-5.62,14.91,14.91,0,0,1,11.26-5.54.52.52,0,0,1,.3,0C322.9,203.47,322.9,203.49,322.88,203.49Z"/><path class="cls-1" d="M341.24,228.47c-1.26-.84-2.49-1.73-3.67-2.67a53.45,53.45,0,0,1-4.82-4.23,28.19,28.19,0,0,1-4.52-5.6,16.32,16.32,0,0,1-2.19-6.52,14.9,14.9,0,0,1,.5-5.4c.06-.22.12-.42.18-.62s.1-.08.14,0a2.47,2.47,0,0,0,.32,1c.56,1.4,1.14,2.79,1.75,4.19.42,1,.86,1.91,1.28,2.87.7,1.59,1.4,3.17,2.19,4.72.6,1.16,1.26,2.31,2,3.41.42.68.86,1.34,1.3,2,.68,1,1.44,2,2.21,3,.46.58.94,1.12,1.4,1.71s1.24,1.36,1.89,2C341.22,228.35,341.32,228.37,341.24,228.47Z"/><path class="cls-1" d="M332.33,185.67A14.86,14.86,0,0,1,328,195.86a10,10,0,0,1-.82.78.23.23,0,0,1,0-.22,20.09,20.09,0,0,0,.4-2.41c.08-.56.18-1.1.26-1.67s.1-.88.16-1.32.14-.9.18-1.36.12-1,.16-1.51c0-.22.06-.46.08-.68.08-.64.16-1.28.2-1.93s.12-1,.18-1.55v-.14a12.94,12.94,0,0,1,.08-1.53c.1-1.42.06-2.83,0-4.25,0-.76-.08-1.55-.14-2.31s-.16-1.79-.28-2.67a43.61,43.61,0,0,0-.88-4.84,2.43,2.43,0,0,1-.1-.36.25.25,0,0,1,0-.26s0,0,0,.08,0,.08.06.12c.82,1.75,1.57,3.53,2.21,5.34a47.33,47.33,0,0,1,2,7.06A21.41,21.41,0,0,1,332.33,185.67Z"/><path class="cls-1" d="M357.82,193.91c-.92.78-1.85,1.53-2.81,2.25a54.92,54.92,0,0,1-6.84,4.48,28.56,28.56,0,0,1-5.58,2.41,14.58,14.58,0,0,1-3.23.6,11.84,11.84,0,0,1-1.69.06c-.2-.1-.4,0-.62,0h0a12.45,12.45,0,0,1-3.43-.6c-.58-.18-1.16-.38-1.73-.6a14.57,14.57,0,0,1-2.27-1.22s-.08-.06-.06-.1A9.51,9.51,0,0,0,331,201l1.44-.16c.48-.06,1-.12,1.46-.2l1.75-.22,1.67-.22,2.15-.32c1.55-.24,3.09-.46,4.62-.8a48.6,48.6,0,0,0,5.84-1.69c1.59-.56,3.13-1.16,4.66-1.87a25.1,25.1,0,0,0,3-1.59A.25.25,0,0,1,357.82,193.91Z"/><path class="cls-1" d="M323.24,198.31l0,0,0,0h0v.12h.14c-.1-.2-.32-.22-.48-.34-.32-.2-.66-.36-1-.54-1.69-.9-3.41-1.75-5.14-2.59-1.14-.56-2.29-1.12-3.45-1.65s-2.37-1.1-3.59-1.59-2.33-.84-3.51-1.2-2.35-.68-3.53-1-2.29-.52-3.45-.7a11.91,11.91,0,0,0-1.44-.2l-.06-.06-.5,0s-.1,0-.14-.06l-.5,0c-.06-.06-.14,0-.2-.06h-.56a0,0,0,0,1,0,0v0a0,0,0,0,1,0,0,7.57,7.57,0,0,1,1.16-.08c.14-.06.3,0,.44-.06a9.46,9.46,0,0,1,1.51-.08c.22-.06.44,0,.66-.06a4.33,4.33,0,0,1,.88,0c1-.06,1.93,0,2.91,0a8.31,8.31,0,0,1,1.22,0,3.07,3.07,0,0,1,.74,0c.22.08.44,0,.66.06a14.37,14.37,0,0,1,1.61.1c.32,0,.64.08,1,.12.1.06.2,0,.3.06a15.39,15.39,0,0,1,1.93.3.62.62,0,0,0,.16,0,12.5,12.5,0,0,1,1.91.44,17.18,17.18,0,0,1,4.82,2.21.61.61,0,0,0,.14.1s0,0,0,.06a.07.07,0,0,0,0,0h-.08v-.2h0a1.13,1.13,0,0,1,.08.24v0h0c0,.06,0,.1.08.1h0a.72.72,0,0,0,.2.14h0a.28.28,0,0,0,.08.06v.1h0a.65.65,0,0,0,.26.2h0a17.16,17.16,0,0,1,2.53,2.59c.3.4.58.82.88,1.22h0a1.76,1.76,0,0,0,.12.2h.06s0,.1.08.14h0s0,.1.06.06h0v.08h0a.28.28,0,0,0,.06.08s0,.1.08.14,0,0,0,.06,0,0,0,.08l0,0,0,0a.07.07,0,0,1,0,.06l0,.08A3.92,3.92,0,0,1,323.24,198.31Z"/><path class="cls-1" d="M322.16,196h-.06a1.85,1.85,0,0,1-.46-.58,18.87,18.87,0,0,0-2.53-2.83c-.16-.16-.4-.24-.56-.48h.2a7.58,7.58,0,0,1,1.34,1.18A12.9,12.9,0,0,1,322,195.8.38.38,0,0,1,322.16,196Z"/><path class="cls-1" d="M337,203.57h0a.07.07,0,0,1,0,0,12,12,0,0,1-3.47-.58,8.83,8.83,0,0,1-1.71-.66,1.18,1.18,0,0,1,.5.14,17.87,17.87,0,0,0,3.19.86,9.13,9.13,0,0,0,1.46.18S337,203.55,337,203.57Z"/><path class="cls-1" d="M256.88,194.13h-.3a8,8,0,0,1-1.24-.22c-.68-.1-1.34-.26-2-.38-.1,0-.24-.06-.32.06-.38-.06-.74-.2-1.1-.28,0-.06,0-.1.06-.06.74.12,1.46.24,2.21.38l2.55.46A.2.2,0,0,1,256.88,194.13Z"/><path class="cls-1" d="M381.32,248.7l-.18-.14c-.88-.86-1.75-1.73-2.61-2.61a.36.36,0,0,1-.1-.14l.08-.08,0,0c.38.36.74.74,1.08,1.1.56.6,1.12,1.18,1.73,1.73l0,0A.15.15,0,0,1,381.32,248.7Z"/><path class="cls-1" d="M307.31,131.4h0c-.12-.58-.24-1.18-.36-1.79,0,0,0-.08,0-.12h0a1.3,1.3,0,0,0,0,.38s0-.06,0-.1a10.88,10.88,0,0,1-.12-1.16h0c0-.06-.06-.14.08-.14l.54,2.71a.68.68,0,0,1,0,.2Z"/><path class="cls-1" d="M304.68,188.19h-4.09a1.87,1.87,0,0,1,.74-.06h3.11A.53.53,0,0,1,304.68,188.19Z"/><path class="cls-1" d="M324.77,151.77h0s0,0,0,0v.08c-.2-.18-.34-.4-.56-.62v0h.06c0-.06,0-.1,0-.12a3.73,3.73,0,0,1,.56.42.12.12,0,0,0-.08,0C324.67,151.63,324.73,151.71,324.77,151.77Z"/><path class="cls-1" d="M295.17,266.08h0l-.06.12-.06.14h0l.06,0a1.2,1.2,0,0,1-.28.42h-.08s0-.06,0-.12a3,3,0,0,0,.28-.7v-.1h0V266C295.21,266,295.19,266,295.17,266.08Z"/><path class="cls-1" d="M387.26,158.57s0,0,0,0a.28.28,0,0,0-.08.06,2.36,2.36,0,0,1-.54.3h0a.12.12,0,0,1,0-.08v0a0,0,0,0,0,0,0,1,1,0,0,1,.42-.2l.06,0,0,0a.07.07,0,0,1,.06,0s.1,0,.12,0v0S387.24,158.55,387.26,158.57Z"/><path class="cls-1" d="M294.84,266.8a5.23,5.23,0,0,1-.34.56.07.07,0,0,1,0,0h0s0,0,0,0a3.86,3.86,0,0,1,.36-.62.12.12,0,0,0,0,.08v0A0,0,0,0,0,294.84,266.8Z"/><path class="cls-1" d="M381.78,248.94c0,.08,0,.14-.1.08a2.43,2.43,0,0,1-.32-.32v-.1l.08-.08h0A2.41,2.41,0,0,1,381.78,248.94Z"/><path class="cls-1" d="M382.22,249.6a3.2,3.2,0,0,1-.58-.58.2.2,0,0,0,.1-.08,4.2,4.2,0,0,1,.48.56s0,.06,0,.1Z"/><path class="cls-1" d="M387.78,158.25h0v.06l-.48.28s0,0,0,0h0l-.08,0a2.94,2.94,0,0,1,.56-.28S387.78,158.23,387.78,158.25Z"/><path class="cls-1" d="M372.73,186.45a.76.76,0,0,1-.16.34c0-.08-.08,0-.12,0h-.08l.28-.4C372.71,186.37,372.75,186.39,372.73,186.45Z"/><path class="cls-1" d="M306.85,128.53a.15.15,0,0,0-.06.14h0c-.1-.16-.06-.32-.06-.56A1.3,1.3,0,0,1,306.85,128.53Z"/><path class="cls-1" d="M386.17,159.16h0a2,2,0,0,1-.48.3.42.42,0,0,1,.08-.12.55.55,0,0,1,.26-.14Z"/><path class="cls-1" d="M306.06,188.17c-.22,0-.44.06-.64-.06A1.79,1.79,0,0,1,306.06,188.17Z"/><path class="cls-1" d="M337.65,203.61a3.43,3.43,0,0,1-.64,0v-.06C337.23,203.55,337.45,203.47,337.65,203.61Z"/><path class="cls-1" d="M299.7,188.11c-.2.12-.44,0-.66.06A1.86,1.86,0,0,1,299.7,188.11Z"/><path class="cls-1" d="M295.87,188.39v.06h-.62A1.57,1.57,0,0,1,295.87,188.39Z"/><path class="cls-1" d="M388.06,158.11h0a.56.56,0,0,1-.28.2l0,0h0l0,0A.39.39,0,0,1,388.06,158.11Z"/><path class="cls-1" d="M386.62,158.89l0,.06h0a.5.5,0,0,1-.32.2h-.08a.32.32,0,0,0,.14-.08.27.27,0,0,1,.18-.1.42.42,0,0,0,.12-.08Z"/><path class="cls-1" d="M251.94,193.23l-.08.08a1,1,0,0,1-.34-.1A.51.51,0,0,1,251.94,193.23Z"/><path class="cls-1" d="M279.37,186.17c-.08.1-.2.06-.32.16a.33.33,0,0,1,.26-.22Z"/><path class="cls-1" d="M382.44,249.78h0a.44.44,0,0,1-.2-.18v-.1A.43.43,0,0,1,382.44,249.78Z"/><path class="cls-1" d="M372.73,186.53l-.08-.08a.14.14,0,0,1,.26-.1c0,.08,0,.16-.08.18Z"/><path class="cls-1" d="M318.55,192.13v.08h.08a.46.46,0,0,1-.28-.3h0C318.46,191.95,318.55,192,318.55,192.13Z"/><path class="cls-1" d="M297.55,188.25c-.14.12-.3,0-.44.06A.85.85,0,0,1,297.55,188.25Z"/><path class="cls-1" d="M324.22,151.19s0,.06,0,.08h0a.32.32,0,0,1-.16-.2A.18.18,0,0,1,324.22,151.19Z"/><path class="cls-1" d="M308.91,188.46c-.1,0-.22,0-.3-.06A.41.41,0,0,1,308.91,188.46Z"/><path class="cls-1" d="M318.26,191.81h0a.17.17,0,0,1-.2-.14h0a.37.37,0,0,1,.2.14Z"/><path class="cls-1" d="M322.16,196.24h0A.18.18,0,0,1,322,196h0A.33.33,0,0,1,322.16,196.24Z"/><path class="cls-1" d="M386.31,158.93a.1.1,0,0,1-.14.06h0A.16.16,0,0,1,386.31,158.93Z"/><path class="cls-1" d="M386.11,159.1h0a.13.13,0,0,1-.16.06.23.23,0,0,1,.16-.06Z"/><path class="cls-1" d="M386.4,158.87a.12.12,0,0,1-.14.06A.16.16,0,0,1,386.4,158.87Z"/><path class="cls-1" d="M317.94,191.65v-.24h0c-.06.24-.12.22-.12.16h0v0h0S318,191.61,317.94,191.65Z"/><path class="cls-1" d="M311,188.8a.16.16,0,0,1-.16,0A.18.18,0,0,1,311,188.8Z"/><path class="cls-1" d="M322.36,196.36h0c-.12,0-.14-.08,0-.14h-.14a.2.2,0,0,1,.08.14h.06Z"/><path class="cls-1" d="M322.56,196.72h0a.17.17,0,0,1-.08-.14A.15.15,0,0,1,322.56,196.72Z"/><path class="cls-1" d="M322.16,196.5h.2c-.06,0-.08-.08,0-.14h-.06C322.36,196.4,322.36,196.44,322.16,196.5Z"/><path class="cls-1" d="M381.36,248.38h0a.11.11,0,0,1-.08-.12.16.16,0,0,1,.08.12Z"/><path class="cls-1" d="M295.27,265.86h0a.13.13,0,0,1,.08-.14C295.35,265.78,295.35,265.84,295.27,265.86Z"/><path class="cls-1" d="M386.54,158.81a.12.12,0,0,1-.14.06A.1.1,0,0,1,386.54,158.81Z"/><path class="cls-1" d="M327.64,167.83s0,0,0-.06h0v0h0v0A.29.29,0,0,1,327.64,167.83Z"/><path class="cls-1" d="M322.42,196.58s-.06,0-.06-.08h0S322.42,196.54,322.42,196.58Z"/><path class="cls-1" d="M323.24,198.23l0,0,0,0h0Z"/><path class="cls-1" d="M317.94,191.61v-.2h-.08c0,.16,0,.16,0,.14s0,0,0-.06.06,0,.08.06v0Z"/><path class="cls-1" d="M378.27,245.69a.06.06,0,0,1-.06-.06Z"/><path class="cls-1" d="M378.33,245.75a.06.06,0,0,1-.06-.06Z"/><path class="cls-1" d="M378.41,245.83a.06.06,0,0,1-.06-.06Z"/><rect class="cls-1" x="317.94" y="191.61" width="0.2" height="0.2"/><path class="cls-1" d="M318.06,191.69h0s-.06,0-.08-.06h0s.06,0,.08.06Z"/><path class="cls-1" d="M381.18,248.26l-.06-.08S381.18,248.22,381.18,248.26Z"/><path class="cls-1" d="M387.08,158.53a.08.08,0,0,1-.08,0l.06,0Z"/><path class="cls-1" d="M381.36,248.54h0s-.06,0,.16-.08h-.22A0,0,0,0,1,381.36,248.54Z"/><path class="cls-1" d="M387.24,158.59s0,.06-.08.06S387.2,158.59,387.24,158.59Z"/><path class="cls-1" d="M318.34,192h0s-.06,0-.08-.06h0s.06,0,.08.06Z"/><path class="cls-1" d="M382.5,249.84a.05.05,0,0,1-.06-.06v0h0s.06,0,.06.08Z"/><path class="cls-1" d="M382.56,249.92a.05.05,0,0,1-.06-.06A.05.05,0,0,1,382.56,249.92Z"/><path class="cls-1" d="M381.42,248.4h0s-.06,0-.06-.08h0a.11.11,0,0,1,.06.08Z"/><path class="cls-1" d="M295.33,266.1a.05.05,0,0,1-.06.06S295.29,266.12,295.33,266.1Z"/><path class="cls-1" d="M295.27,266.18s0,.08-.06.08S295.23,266.2,295.27,266.18Z"/><path class="cls-1" d="M295.19,266.32a.05.05,0,0,1-.06.06A.06.06,0,0,1,295.19,266.32Z"/><path class="cls-1" d="M382.6,250h0v0Z"/><path class="cls-1" d="M296.53,188.46c.08,0,.16,0,.2.06S296.57,188.54,296.53,188.46Z"/><path class="cls-1" d="M297.21,188.54a.12.12,0,0,1,.12.06A.14.14,0,0,1,297.21,188.54Z"/><path class="cls-1" d="M297.83,188.6l.06.06Z"/><g class="cls-2"><path class="cls-1" d="M244.73,281.79v12.78h4.82v4.21H235.1v-4.21h4.82V281.79H235.1v-4.21h14.45v4.21Z"/></g><g class="cls-2"><path class="cls-1" d="M258.22,288.78v-1.2l-7.16-10h5.54l5.72,8.13,5.74-8.13h5.54l-7.18,10v1.2l7.18,10h-5.54l-5.74-8.15-5.72,8.15h-5.54Z"/><path class="cls-1" d="M284.43,277.58h15.13v4.21H289.25v4.27h8.81v4.21h-8.81v4.29h10.31v4.21H284.43V277.58Z"/><path class="cls-1" d="M320.37,281.79h-6.92v17h-4.82v-17h-6.94v-4.21h18.68Z"/></g><g class="cls-2"><path class="cls-1" d="M322.5,277.58h4.82v11.2c0,3.79.32,6.1,4.76,6.1s4.78-2.31,4.78-6.1v-11.2h4.82V290.9c0,5.3-3.31,8.19-9.59,8.19s-9.57-2.87-9.57-8.17Z"/></g><g class="cls-2"><path class="cls-1" d="M364.66,277.58v21.21h-4.82v-8.21H349.19v8.21h-4.82V277.58h4.82v8.79h10.66v-8.79Z"/><path class="cls-1" d="M386.46,288.17c0,9.15-5.9,10.62-11.56,10.62h-7.83V277.58h7.83C380.56,277.58,386.46,279.06,386.46,288.17Zm-4.82,0c0-6.08-3-6.38-6.74-6.38h-3v12.78h3C378.65,294.6,381.64,294.29,381.64,288.17Z"/></g><g class="cls-2"><path class="cls-1" d="M389.77,277.58H404.9v4.21H394.58v4.27h8.81v4.21h-8.81v4.29H404.9v4.21H389.77Z"/></g></svg>